/* XPM */
static char * character_xpm[] = {
"50 50 851 2",
"  	c #A6D563",
". 	c #A6D562",
"+ 	c #A5D55F",
"@ 	c #A2D15F",
"# 	c #A6D561",
"$ 	c #ACDC67",
"% 	c #A5D562",
"& 	c #A1D15F",
"* 	c #A5D662",
"= 	c #A4D35D",
"- 	c #A4D361",
"; 	c #A7D764",
"> 	c #ABDA66",
", 	c #A3D25F",
"' 	c #8DB553",
") 	c #7FA24D",
"! 	c #5C6C36",
"~ 	c #392620",
"{ 	c #6C8240",
"] 	c #9AC45C",
"^ 	c #A1D05F",
"/ 	c #A6D564",
"( 	c #A5D45E",
"_ 	c #A2D15E",
": 	c #ACDB67",
"< 	c #A5D462",
"[ 	c #A3D260",
"} 	c #A4D45F",
"| 	c #A8D864",
"1 	c #A9D864",
"2 	c #A2D161",
"3 	c #A5D55E",
"4 	c #A2D15D",
"5 	c #ABDB67",
"6 	c #A6D662",
"7 	c #A1D05E",
"8 	c #A4D45E",
"9 	c #A3D35F",
"0 	c #ADDD68",
"a 	c #A6D55F",
"b 	c #A4D360",
"c 	c #A7D762",
"d 	c #A5D561",
"e 	c #A6D764",
"f 	c #A7D761",
"g 	c #A5D45F",
"h 	c #6D8B41",
"i 	c #221C1C",
"j 	c #31221E",
"k 	c #382620",
"l 	c #86A84F",
"m 	c #A5D560",
"n 	c #A5D460",
"o 	c #A4D35F",
"p 	c #A7D662",
"q 	c #A9D962",
"r 	c #AADA65",
"s 	c #A5D463",
"t 	c #ADDC67",
"u 	c #A5D461",
"v 	c #ACDC66",
"w 	c #A6D661",
"x 	c #A8D765",
"y 	c #AAD965",
"z 	c #A5D660",
"A 	c #9BC75B",
"B 	c #617A3A",
"C 	c #85A84D",
"D 	c #A6D660",
"E 	c #ACDB66",
"F 	c #A4D561",
"G 	c #A9D865",
"H 	c #A2D05E",
"I 	c #A8D763",
"J 	c #A7D664",
"K 	c #A9D863",
"L 	c #A3D261",
"M 	c #A5D360",
"N 	c #A4D460",
"O 	c #ACDD67",
"P 	c #6F8941",
"Q 	c #372520",
"R 	c #2D201D",
"S 	c #83A74D",
"T 	c #A9DB65",
"U 	c #A8D866",
"V 	c #ADDC68",
"W 	c #ABDA67",
"X 	c #A5D661",
"Y 	c #ACDD66",
"Z 	c #A5D25F",
"` 	c #AADA66",
" .	c #A8D865",
"..	c #A9D965",
"+.	c #A8D965",
"@.	c #ACDD68",
"#.	c #A5D564",
"$.	c #A4D55F",
"%.	c #82A74D",
"&.	c #3D4A27",
"*.	c #31221F",
"=.	c #2A201D",
"-.	c #749347",
";.	c #9FCC5D",
">.	c #AADB66",
",.	c #A2D260",
"'.	c #ABDC67",
").	c #A6D763",
"!.	c #A1D05C",
"~.	c #A4D461",
"{.	c #AAD964",
"].	c #A1D15D",
"^.	c #A4D65F",
"/.	c #A8D562",
"(.	c #A4D35E",
"_.	c #A6D664",
":.	c #A4D560",
"<.	c #6E8D41",
"[.	c #2D211E",
"}.	c #281F1D",
"|.	c #80A44A",
"1.	c #A5D663",
"2.	c #A7D863",
"3.	c #A6D761",
"4.	c #A3D35C",
"5.	c #A8D863",
"6.	c #A3D360",
"7.	c #A9DA65",
"8.	c #ADDD65",
"9.	c #A9D964",
"0.	c #A9D866",
"a.	c #A3D25E",
"b.	c #93BE58",
"c.	c #5B7036",
"d.	c #271E1D",
"e.	c #231C1C",
"f.	c #44251D",
"g.	c #6F7235",
"h.	c #7F8F41",
"i.	c #96B954",
"j.	c #ABDB65",
"k.	c #A7D665",
"l.	c #ADDD67",
"m.	c #A1CF5D",
"n.	c #A3D15F",
"o.	c #708D42",
"p.	c #2B201E",
"q.	c #2D211F",
"r.	c #3F261F",
"s.	c #47271E",
"t.	c #57291C",
"u.	c #6F5E2D",
"v.	c #777836",
"w.	c #8DAC4F",
"x.	c #A3D35E",
"y.	c #A8D762",
"z.	c #A2D25F",
"A.	c #A9D963",
"B.	c #8C9D4C",
"C.	c #51452B",
"D.	c #251C1B",
"E.	c #32221F",
"F.	c #8C501F",
"G.	c #AF6118",
"H.	c #C9981D",
"I.	c #D9B81C",
"J.	c #CD9F16",
"K.	c #A07122",
"L.	c #8AA149",
"M.	c #A6D560",
"N.	c #A1D05D",
"O.	c #ADDC66",
"P.	c #ABDB66",
"Q.	c #818C41",
"R.	c #72361A",
"S.	c #7D3A15",
"T.	c #80370F",
"U.	c #AA5918",
"V.	c #C6781D",
"W.	c #DFAF20",
"X.	c #EAC820",
"Y.	c #EAC821",
"Z.	c #E1B41E",
"`.	c #B77F1B",
" +	c #8E9241",
".+	c #9FC95D",
"++	c #A2D160",
"@+	c #9DC458",
"#+	c #A09539",
"$+	c #B77521",
"%+	c #9C4F16",
"&+	c #904716",
"*+	c #C08020",
"=+	c #E2B623",
"-+	c #E2BA1F",
";+	c #D1A71A",
">+	c #D1A319",
",+	c #C48F1E",
"'+	c #928737",
")+	c #9CC35A",
"!+	c #ACDC65",
"~+	c #AADA64",
"{+	c #7E883E",
"]+	c #C1A01C",
"^+	c #DEB121",
"/+	c #AA701C",
"(+	c #A95919",
"_+	c #DCAB21",
":+	c #E0B520",
"<+	c #C1831D",
"[+	c #C4941B",
"}+	c #E5BD1E",
"|+	c #C9961A",
"1+	c #988034",
"2+	c #92B452",
"3+	c #A1D15C",
"4+	c #A7D663",
"5+	c #A4D363",
"6+	c #A3D461",
"7+	c #A4D562",
"8+	c #7F8A3E",
"9+	c #D7B31D",
"0+	c #C2841B",
"a+	c #E2BB1F",
"b+	c #E0B81D",
"c+	c #E6C01E",
"d+	c #CF9E18",
"e+	c #9E7A29",
"f+	c #90AC4F",
"g+	c #7E883C",
"h+	c #C1A01B",
"i+	c #D0981D",
"j+	c #DCAB22",
"k+	c #E9C420",
"l+	c #BF991F",
"m+	c #828F42",
"n+	c #A3D361",
"o+	c #A9D966",
"p+	c #A8D961",
"q+	c #A8DA62",
"r+	c #A6D663",
"s+	c #AAD963",
"t+	c #7C863C",
"u+	c #C4A220",
"v+	c #EBC822",
"w+	c #EBC821",
"x+	c #DFAE23",
"y+	c #CF981E",
"z+	c #D9AD1D",
"A+	c #B27A18",
"B+	c #829243",
"C+	c #A7D861",
"D+	c #A2D25D",
"E+	c #A8D964",
"F+	c #A5D563",
"G+	c #A7D960",
"H+	c #7F853D",
"I+	c #BF971B",
"J+	c #E8C31F",
"K+	c #E7BF1F",
"L+	c #E5BB1E",
"M+	c #E5BB1F",
"N+	c #E7C21F",
"O+	c #C9A31E",
"P+	c #B48A1C",
"Q+	c #C9A41B",
"R+	c #8F843B",
"S+	c #9BC158",
"T+	c #A4D261",
"U+	c #A2D35F",
"V+	c #A3D35D",
"W+	c #ACDD69",
"X+	c #7E843C",
"Y+	c #B07111",
"Z+	c #D9A518",
"`+	c #C79529",
" @	c #B47D2F",
".@	c #B68035",
"+@	c #B88138",
"@@	c #B57F34",
"#@	c #B47D30",
"$@	c #CC9B28",
"%@	c #E2B21D",
"&@	c #E4BC1E",
"*@	c #D7B31F",
"=@	c #BE9420",
"-@	c #CC991E",
";@	c #AD7013",
">@	c #808A3E",
",@	c #A8D764",
"'@	c #79843C",
")@	c #AD7011",
"!@	c #B67E2D",
"~@	c #906A40",
"{@	c #816245",
"]@	c #896A4D",
"^@	c #8F7053",
"/@	c #87684B",
"(@	c #946C3D",
"_@	c #A57436",
":@	c #BE8C2A",
"<@	c #E0B51B",
"[@	c #D4A71E",
"}@	c #BA7015",
"|@	c #818B41",
"1@	c #A3D462",
"2@	c #A7D763",
"3@	c #75823C",
"4@	c #80572F",
"5@	c #8A6642",
"6@	c #88694C",
"7@	c #86674A",
"8@	c #8B6640",
"9@	c #BE992F",
"0@	c #DBAA20",
"a@	c #D19120",
"b@	c #BF981C",
"c@	c #7F893D",
"d@	c #A3D363",
"e@	c #A7D864",
"f@	c #789144",
"g@	c #72593C",
"h@	c #806145",
"i@	c #8E6F52",
"j@	c #A67833",
"k@	c #DAAA1B",
"l@	c #EBC721",
"m@	c #E9C520",
"n@	c #D9A720",
"o@	c #C47B1B",
"p@	c #AB711B",
"q@	c #849143",
"r@	c #AADB65",
"s@	c #738942",
"t@	c #71553B",
"u@	c #8D765C",
"v@	c #92795F",
"w@	c #907155",
"x@	c #927761",
"y@	c #9B8270",
"z@	c #8C7059",
"A@	c #8D725B",
"B@	c #927760",
"C@	c #907358",
"D@	c #907255",
"E@	c #8B6C4F",
"F@	c #836447",
"G@	c #A17238",
"H@	c #D3A423",
"I@	c #DDB01E",
"J@	c #CB8617",
"K@	c #AE7011",
"L@	c #7E863C",
"M@	c #A4D362",
"N@	c #94BB57",
"O@	c #787D4D",
"P@	c #816952",
"Q@	c #907B61",
"R@	c #958168",
"S@	c #947B61",
"T@	c #9A8573",
"U@	c #B5AAA3",
"V@	c #C1B9B6",
"W@	c #A89A93",
"X@	c #9C8B82",
"Y@	c #9A8A7A",
"Z@	c #947C63",
"`@	c #907458",
" #	c #8C6D50",
".#	c #8A6B4F",
"+#	c #B58F40",
"@#	c #E4BB1E",
"##	c #E5BC1E",
"$#	c #B78617",
"%#	c #808A3F",
"&#	c #AAD966",
"*#	c #ABDC64",
"=#	c #A5D260",
"-#	c #728442",
";#	c #816F59",
">#	c #A7998B",
",#	c #B1A59B",
"'#	c #A1917F",
")#	c #B4AAAA",
"!#	c #A59995",
"~#	c #AA9D93",
"{#	c #AB9C92",
"]#	c #9A8374",
"^#	c #916C44",
"/#	c #BD9620",
"(#	c #C09F1B",
"_#	c #7D8C41",
":#	c #A2D05D",
"<#	c #A3D45F",
"[#	c #A8D662",
"}#	c #6E803F",
"|#	c #806F59",
"1#	c #80756B",
"2#	c #797170",
"3#	c #C0B6B5",
"4#	c #BFB3B0",
"5#	c #ACA19F",
"6#	c #BBB2B1",
"7#	c #B3AAA8",
"8#	c #CFC7C5",
"9#	c #B6AEAC",
"0#	c #787170",
"a#	c #6F6868",
"b#	c #78665A",
"c#	c #7A6048",
"d#	c #A38A29",
"e#	c #C0A01B",
"f#	c #7C883D",
"g#	c #A4D45D",
"h#	c #A3D25D",
"i#	c #ABDB64",
"j#	c #6F8140",
"k#	c #5F5244",
"l#	c #34292A",
"m#	c #6C6362",
"n#	c #6F6665",
"o#	c #918889",
"p#	c #B7AFAE",
"q#	c #B4ABAA",
"r#	c #867E7F",
"s#	c #746D6C",
"t#	c #655B5B",
"u#	c #312827",
"v#	c #231C1B",
"w#	c #604C38",
"x#	c #7A6047",
"y#	c #A38A28",
"z#	c #BF9F1B",
"A#	c #7A893F",
"B#	c #A2D25C",
"C#	c #6F8040",
"D#	c #AFA49D",
"E#	c #8A8583",
"F#	c #5F5959",
"G#	c #A49D9A",
"H#	c #B3AAA9",
"I#	c #B1A9A7",
"J#	c #B7AFAC",
"K#	c #BDB5B2",
"L#	c #918A88",
"M#	c #585252",
"N#	c #5C5555",
"O#	c #867C7D",
"P#	c #A19088",
"Q#	c #7B614B",
"R#	c #9F8422",
"S#	c #E7C21E",
"T#	c #BE9F1A",
"U#	c #76863E",
"V#	c #84A44C",
"W#	c #7B7751",
"X#	c #9B8F8B",
"Y#	c #A99FA0",
"Z#	c #B9B1AF",
"`#	c #AAA1A0",
" $	c #918788",
".$	c #877D7E",
"+$	c #958B8B",
"@$	c #B3ABA8",
"#$	c #B8B0AE",
"$$	c #ADA4A4",
"%$	c #A4999A",
"&$	c #9D9291",
"*$	c #93857E",
"=$	c #836849",
"-$	c #A8721E",
";$	c #DAA617",
">$	c #75853C",
",$	c #A7D666",
"'$	c #91B756",
")$	c #86876E",
"!$	c #9F9494",
"~$	c #948584",
"{$	c #826F6C",
"]$	c #7E6C6B",
"^$	c #7C6A6A",
"/$	c #ABA09E",
"($	c #B6ACA9",
"_$	c #A49897",
":$	c #918281",
"<$	c #7C6A66",
"[$	c #816147",
"}$	c #AF7616",
"|$	c #D39713",
"1$	c #E1B51B",
"2$	c #77883E",
"3$	c #748842",
"4$	c #8E8382",
"5$	c #9C9090",
"6$	c #887573",
"7$	c #745852",
"8$	c #6A4743",
"9$	c #725756",
"0$	c #928381",
"a$	c #A09492",
"b$	c #918280",
"c$	c #83716F",
"d$	c #776561",
"e$	c #89633E",
"f$	c #BA7D15",
"g$	c #D59D14",
"h$	c #75853D",
"i$	c #ABDA65",
"j$	c #A1CD5F",
"k$	c #7A8854",
"l$	c #5D5352",
"m$	c #746564",
"n$	c #83726E",
"o$	c #7A605B",
"p$	c #75524A",
"q$	c #785850",
"r$	c #806965",
"s$	c #6D5C57",
"t$	c #59473F",
"u$	c #594740",
"v$	c #916431",
"w$	c #C58513",
"x$	c #D7A217",
"y$	c #EAC720",
"z$	c #74833C",
"A$	c #A3D160",
"B$	c #809343",
"C$	c #493A22",
"D$	c #392B1E",
"E$	c #523C25",
"F$	c #5D432A",
"G$	c #563D29",
"H$	c #583F2A",
"I$	c #A47322",
"J$	c #CD8B15",
"K$	c #CE8F16",
"L$	c #DBAC1D",
"M$	c #EAC722",
"N$	c #EAC721",
"O$	c #E0B31C",
"P$	c #D8A416",
"Q$	c #E9C51F",
"R$	c #77883F",
"S$	c #ACDC68",
"T$	c #A7D661",
"U$	c #A7D865",
"V$	c #818D40",
"W$	c #B17C15",
"X$	c #D49A14",
"Y$	c #D19110",
"Z$	c #A5630E",
"`$	c #B67315",
" %	c #D39412",
".%	c #D39B12",
"+%	c #DFB31B",
"@%	c #E8C320",
"#%	c #DEAB1B",
"$%	c #CF8B10",
"%%	c #DAA717",
"&%	c #78883F",
"*%	c #A8D962",
"=%	c #ABDC65",
"-%	c #A4D262",
";%	c #A6D861",
">%	c #C29F1D",
",%	c #D9A716",
"'%	c #A4620E",
")%	c #B57315",
"!%	c #E1B01C",
"~%	c #E1B21E",
"{%	c #77873D",
"]%	c #A5D363",
"^%	c #A6D762",
"/%	c #A2D25E",
"(%	c #828E41",
"_%	c #D9A617",
":%	c #B87015",
"<%	c #CE961F",
"[%	c #E8BF20",
"}%	c #E3BA1D",
"|%	c #D69C16",
"1%	c #CB8313",
"2%	c #C98013",
"3%	c #E4BB1C",
"4%	c #B28514",
"5%	c #C2A01D",
"6%	c #E6C01F",
"7%	c #CE911A",
"8%	c #DCA922",
"9%	c #DFB01C",
"0%	c #C97E16",
"a%	c #CE911B",
"b%	c #E8C01E",
"c%	c #EAC81F",
"d%	c #DFB41B",
"e%	c #AA6E11",
"f%	c #7F9A4A",
"g%	c #614626",
"h%	c #CF991B",
"i%	c #DBA922",
"j%	c #E1B01E",
"k%	c #CF8B11",
"l%	c #C97E17",
"m%	c #D0981B",
"n%	c #E2B61C",
"o%	c #D29216",
"p%	c #A97217",
"q%	c #52482E",
"r%	c #7D964A",
"s%	c #A0CE5F",
"t%	c #ABDA64",
"u%	c #A6D766",
"v%	c #9DC95E",
"w%	c #788749",
"x%	c #82705A",
"y%	c #7A5946",
"z%	c #E5BF1F",
"A%	c #E2BA1D",
"B%	c #E7C220",
"C%	c #DCA81A",
"D%	c #CD8811",
"E%	c #C67A17",
"F%	c #C2741D",
"G%	c #D6A31D",
"H%	c #E8C41F",
"I%	c #DDAB1A",
"J%	c #BB8741",
"K%	c #948066",
"L%	c #826D56",
"M%	c #5E4836",
"N%	c #737E44",
"O%	c #9CC85B",
"P%	c #AADA63",
"Q%	c #93BC56",
"R%	c #757A44",
"S%	c #86725B",
"T%	c #775846",
"U%	c #C19F1C",
"V%	c #BE681B",
"W%	c #DDAC1A",
"X%	c #CC8511",
"Y%	c #C47618",
"Z%	c #C67D1D",
"`%	c #DBAC1F",
" &	c #CF9E17",
".&	c #B5730C",
"+&	c #AA7841",
"@&	c #937B60",
"#&	c #7F6449",
"$&	c #87AE50",
"%&	c #6E7143",
"&&	c #83664B",
"*&	c #776450",
"=&	c #614237",
"-&	c #AF801B",
";&	c #C8821C",
">&	c #A25A1D",
",&	c #BC8720",
"'&	c #E3B920",
")&	c #CC8D1B",
"!&	c #DDB21F",
"~&	c #E6BD1E",
"{&	c #D8A018",
"]&	c #B57312",
"^&	c #7F3710",
"/&	c #925731",
"(&	c #986F4D",
"_&	c #816951",
":&	c #8D6E50",
"<&	c #6D7E40",
"[&	c #A8D862",
"}&	c #647E3C",
"|&	c #504034",
"1&	c #5F4C3C",
"2&	c #7E974A",
"3&	c #6A7438",
"4&	c #844619",
"5&	c #B1611A",
"6&	c #9C5820",
"7&	c #5D3821",
"8&	c #975621",
"9&	c #D9A61E",
"0&	c #D19519",
"a&	c #E4BD1C",
"b&	c #D69B17",
"c&	c #C07D14",
"d&	c #975415",
"e&	c #924714",
"f&	c #9C521A",
"g&	c #877A37",
"h&	c #849C4C",
"i&	c #745942",
"j&	c #7F644A",
"k&	c #ACDD65",
"l&	c #A7D862",
"m&	c #9ECB5B",
"n&	c #97C25B",
"o&	c #94BF56",
"p&	c #A0D05F",
"q&	c #7A8D41",
"r&	c #572E1A",
"s&	c #63391F",
"t&	c #4D3021",
"u&	c #553421",
"v&	c #AA6D20",
"w&	c #C9821C",
"x&	c #CF8F1A",
"y&	c #D18F14",
"z&	c #D08E13",
"A&	c #D59915",
"B&	c #CE8A18",
"C&	c #B06618",
"D&	c #A15715",
"E&	c #B46019",
"F&	c #975319",
"G&	c #77843B",
"H&	c #9ECA5E",
"I&	c #A4D15F",
"J&	c #86A54F",
"K&	c #5B4734",
"L&	c #594534",
"M&	c #718542",
"N&	c #A4D462",
"O&	c #A5D65F",
"P&	c #ADDC69",
"Q&	c #7D8A3D",
"R&	c #A1561A",
"S&	c #8A4F23",
"T&	c #382920",
"U&	c #2F211E",
"V&	c #30221E",
"W&	c #41281F",
"X&	c #96551E",
"Y&	c #C57916",
"Z&	c #C47816",
"`&	c #BE681A",
" *	c #BA661B",
".*	c #90501E",
"+*	c #363E23",
"@*	c #7A9C48",
"#*	c #A3D460",
"$*	c #A5D45D",
"%*	c #A2D15C",
"&*	c #A8D761",
"**	c #7F893F",
"=*	c #A15517",
"-*	c #AF611C",
";*	c #6E401F",
">*	c #34241F",
",*	c #3E241B",
"'*	c #793C16",
")*	c #AB5B19",
"!*	c #B8641B",
"~*	c #B6621A",
"{*	c #BA6B2A",
"]*	c #A26438",
"^*	c #6B442E",
"/*	c #728F42",
"(*	c #90B04F",
"_*	c #92712E",
":*	c #8B4D1B",
"<*	c #804619",
"[*	c #58321A",
"}*	c #50291B",
"|*	c #A0571D",
"1*	c #C9861C",
"2*	c #CF981B",
"3*	c #BD7D1C",
"4*	c #974C16",
"5*	c #955731",
"6*	c #A27958",
"7*	c #7F6C57",
"8*	c #7A9345",
"9*	c #ADDD66",
"0*	c #95BC55",
"a*	c #897733",
"b*	c #944B18",
"c*	c #9C4F14",
"d*	c #99521B",
"e*	c #96541E",
"f*	c #AE611E",
"g*	c #B97B1A",
"h*	c #B48918",
"i*	c #8E6619",
"j*	c #552917",
"k*	c #755B47",
"l*	c #799346",
"m*	c #A7D766",
"n*	c #788C43",
"o*	c #55281D",
"p*	c #5A2012",
"q*	c #692E13",
"r*	c #733215",
"s*	c #683418",
"t*	c #532C18",
"u*	c #472217",
"v*	c #748C40",
"w*	c #738C43",
"x*	c #705E4B",
"y*	c #799146",
"z*	c #ACDB65",
"A*	c #729144",
"B*	c #715D44",
"C*	c #8E745B",
"D*	c #907B63",
"E*	c #6D5A47",
"F*	c #819F49",
"G*	c #A1CE60",
"H*	c #A0CD5E",
"I*	c #84A14D",
"J*	c #725F4C",
"K*	c #937F66",
"L*	c #7D6D55",
"M*	c #7D9749",
"N*	c #A5D362",
"O*	c #69863E",
"P*	c #67523F",
"Q*	c #7A5E45",
"R*	c #7C6147",
"S*	c #847059",
"T*	c #72714B",
"U*	c #92B758",
"V*	c #83A04D",
"W*	c #958066",
"X*	c #91775C",
"Y*	c #8D6F52",
"Z*	c #745A44",
"`*	c #6F8E42",
" =	c #88AE52",
".=	c #6E8C41",
"+=	c #6C8A3F",
"@=	c #6F8D43",
"#=	c #708F42",
"$=	c #91BA55",
"%=	c #777D4B",
"&=	c #76624D",
"*=	c #6E553F",
"==	c #6B533D",
"-=	c #707042",
";=	c #88AE50",
">=	c #A3D463",
",=	c #A5D760",
"'=	c #A7D564",
")=	c #A6D65F",
"!=	c #A9DA64",
"~=	c #97C357",
"{=	c #81A54E",
"]=	c #7DA049",
"^=	c #80A44D",
"/=	c #95BF58",
"(=	c #A3D161",
"  . + @ # $ % & * . = - ; > , ' ) ! ~ ~ { ] ^   / ( _ . : < [   # , } | 1 2 . / 3 4 . 5 6 7 . / 8 9 ",
"0 a . b # c d e 5 +   } . f g h i j k ~ ~ l m $ n . o   p + q r n s m   p n t 6 u n < c + + v g   } ",
"- < $ . o [ m w [ x y # @ m z A B j k ~ ~ C D b / E # [ - F d o G 1 # H u w n u $ # u 4 + / , I > # ",
"- } J u #   K y L + . M   N O % P Q k ~ R S E - n 6 n   < T U o n # n . u V o b w # u . c W L 3 # n ",
"X Y , Z `  .  + ..+.7   @.#.  $.%.&.*.Q =.-.;.p >.,.< '.).  s >.c !.. V     + @.~.[ ..+.  . 1 {.].  ",
"^.X p /.d . @ (._.d  .  :.#.7 F * <.*.[.i }.|.d 1.2.  :.* _ m 1.% I . m < @ + _.3.J d d [ 4.  . 5.  ",
"@ 6.7.w n 8.% % !.n r % 9.0.g o a.b.c.d.e.f.g.h.i.{.  w E u # ].# y g j.I n L a.G k.8 l.. n m.n r   ",
"  | 3.N _   7 g   y m n.< u [ g I 2.o.p.q.r.s.t.u.v.w.b . ^ n p 1 n @ . b x.# I y.u z./ ].u . y g [ ",
"m A.#     n / # u q .   n . < n c B.C.D.E.F.G.H.I.J.K.L.u < d M.1 # / g   u n K w   . g / < m 9.n . ",
"    # N.  O.# a.  / b - k.P.L u Q.R.S.T.U.V.W.X.X.Y.Z.`. +.+b . # , b K {.[ # . s 7 / E   ++. . o _ ",
"t a . n # # n ).5 +   g   . n @+#+$+%+&+*+=+X.X.X.-+;+>+,+'+)+r n   m . m m t 6 u # #   m u !+u   m ",
"- u 0   o a.M._.z.G ~+. @ < p {+]+^+/+(+_+X.X.X.X.:+<+[+}+|+1+2+y G . 3+# 4+- 5+O.# u @ # 4+,.J P.  ",
"6+7+# d . # I 9.n u . g . n : 8+]+X.9+0+_+X.X.X.X.X.a+b+X.c+d+e+f+  d . g E < n 6 # d # p ~+:.F   g ",
"z '., b y 1 u < {.x N./ 0 6 < g+h+X.X.i+j+X.X.X.X.X.X.X.X.X.k+l+m+7   t . s + t n+[ o+G   < p+9.7 / ",
"+ . q+r+d w , }   u s+  :.6 t+u+Y.X.X.v+w+X.X.X.X.X.X.X.X.x+y+z+A+B+. m # a.n #.C+x + F n+o   m y   ",
"D+o E+F+(.v   < N.n 1 b G+| H+I+J+K+L+L+L+M+M+L+L+N+X.X.X.X.O+P+Q+R+S+> I + T+U+| . V+W+  m 7 + 0.< ",
"# y p < -   7 n . > n a.# u X+Y+Z+`+ @.@+@+@+@@@#@$@%@&@X.X.*@=@-@;@>@# - , # 1 5.+ [   N.n   W n b ",
"n I n .   <   N n ,@n # n . '@)@!@~@{@]@^@^@^@/@{@(@_@:@<@X.X.[@}@;@|@+   - n ,@u . / - # a.+ I n . ",
"I # M.7 # t   1@2@. (.a.J P.3@4@5@6@7@]@^@^@^@/@{@/@/@8@9@X.X.0@a@b@c@1 r d@e@  w 4 . $ 4+- I   g , ",
"W M.. n #   3 r+` + # n . f@g@h@]@^@/@]@^@^@^@/@6@i@i@]@j@k@l@m@n@o@p@q@u $.r@  m # u # g + ~+}   m ",
"[ u t . o , y.c @ G r n @ s@t@u@v@w@/@x@y@y@z@A@B@C@D@E@F@G@H@X.I@J@K@L@# 1 o M@t # u D+4+4+_ c > m ",
"u d   # 6   c 5.s g # # N@O@P@Q@R@S@T@U@V@V@W@X@Y@R@Z@`@ #.#+#@#X.##$#%#n &#M.n . # . r+w G # m # . ",
"X *#a.=#` ,@- n y 5.@   -#;#>#,#,#'#,#V@V@V@)#!#~#,#,#{#]#^@^#/#X.X.(#_#  - n V b - 9.1 < u 1 9.:#. ",
"<#F+` [#N I - g < # W / }#|#1#2#3#4#5#6#V@V@)#7#8#9#0#a#b#^@c#d#X.X.e#f#4+b } < A.x u J M@g#u . > . ",
"[ - ).m h#i#. . @ n ,@9 j#|#k#l#m#n#o#p#V@V@q#r#s#t#u#v#w#^@x#y#X.X.z#A#c g - 6.J   B#j.. n @ n c M@",
". ` 3.d <   7 g   E n - C#;#D#E#F#G#H#I#J#J#J#K#L#M#N#O#P#Q#R#S#X.X.T#U#- a.# ..5.u ~./ N.u . $ g - ",
"g c n .   n s , u p u   V#W#X#Y#H#Z#`# $.$.$+$@$#$$$%$&$*$=$-$;$X.X.T#>$  , M J 8     } / [ + p n . ",
"y # . N.  l.# . | # - [ ,$'$)$!$Y#Y#~${$]$^$/$V@($_$:$<$[$}$|$1$X.X.T#2$~+u {.6 # 7 / $ J < {.. n _ ",
"&## % u n n o . G g . n < u 3$4$Y#5$6$7$8$9$0$a$b$c$d$e$f$g$&@X.X.X.T#h$n m 9.. d # u < 8 u 9.n   m ",
"@ N 0 . M , I x 7  .i$< @ . j$k$l$m$n$o$p$q$r$s$t$u$v$w$x$N+y$X.X.X.T#z$# &#[ M@l.# u A$I | 7 ; E d ",
"F F u < 2@4+# I d :.- # 1 n K a.B$C$D$E$F$G$H$I$J$K$L$M$N$O$P$Q$X.X.T#R$m 9.u :.7+u y.y.# ,@:.F - # ",
"z S$V+< ..T$b < ~+U$V+. y . n.m Y V$W$X$Y$Z$`$ %.%+%X.X.@%#%$%%%X.X.T#&%< [ m S$<#b | x - - *%9., / ",
"(.< =%_.d A.u m -%6 !+  ;%2@n x.u q@>%X.,%'%)%!%X.X.X.X.~%$%$%%%X.X.T#{%4+g b ]%~+x + +.< m L D $ . ",
"o 8 ^%~.4 y d % , g p /%3.2@n u (.(%>%X._%:%<%[%X.X.X.}%|%1%2%%%X.3%4%&%p + M@b w . 3+o+  n , N 4+b ",
"# : p .     N.n . V n n # u D+n G q@5%X.6%7%8%X.X.X.X.9%$%0%a%b%c%d%e%U#- , # i$G m <   N.n D t n < ",
"u . n .   u s ,.n # n # n w 9 /%f%g%5%X.X.h%i%X.X.X.w+j%k%l%m%c%n%o%p%q%r%s%6.. } .   u . 4 < 4+n . ",
"t%D p N.# V . u%A.# o a.,@E v%w%x%y%>%z%A%B%X.X.X.J+C%D%E%F%G%H%I%J%R@K%L%M%N%O%# !.# t J   P%. n 4 ",
"x . m < b u + F 2@u # n - Q%R%S%R@T%U%i+V%i%X.X.X.W%X%Y%Z%`%6% &.&+&R@@&^@^@#&}#n # u b g n ,@n w d ",
"@ - 0 < n b 1 A.7 ,@i$n $&%&&&P@*&=&-&;&>&,&'&X.X.W%1%)&!&~&{&]&^&/&(&_&:&E@#&<&l.# u o [&A.7 c E g ",
"u d < o I ,@. 6   z , # }&|&1&2&3&4&5&6&7&8&i%Y.X.9&0&a&L+b&c&d&e&f&g&h&i&7@j&}#- n I  .d J # # [   ",
"^%k&} s I   [ + ` l&-   m&n&o&p&q&r&s&t&~ u&v&w&x&y&z&A&B&C&D&E&F&G&H&I&J&K&L&M&F < c ^%- u ..q b / ",
"D+N&!+2@. > < m z.O&P&  [&0.. Q&R&S&T&*.U&V&W&X&Y&Z&`&`&`& *.*+*@*>.. G ,@b /%#*r@x d P.  $*_ . 0 . ",
"< F+1.~.%*&*% d < d w _ # J n **=*-*;*[.>*,*'*)*V%V%!*~*{*]*^*/*n # !.y.# m < N&1.  !.x . u s u . , ",
"< 5 3..   s ^ g . t d   % < ++(*_*:*<*<*[*}*|*1*2*3*4*5*6*R@7*8*$ n   . M@, m ` 5.% . # 7 u M.9*g . ",
"u # n .   #   _ % w u   F 6 [ b 0*a*b*c*d*e*f*g*h*i*j*k*R@R@7*l*u #   a . _ u / +   . m / @ % . n . ",
"E a # N.. t # 2@r m M@/%m*P.  ~+[&n*o*p*q*r*s*t*u*v*w*x*R@R@7*y*n , b G {.. z*p m N.  $ 4+. z*u u 4 ",
"J . 4+. o o } 7+_.w T$. [ n u J A*B*.#C*D*E*F*G*H*} I*J*R@R@K*L*M*r+. /%n n J   T$# u [ + N*J # 4+. ",
"++(.$ % u n 1 o+].2@r < s   $ - O*P*Q*R*S*T*U*& d : V*J*W*X*Y*Z*`*1 g s # $ , 6.S$u < < I r 7 6 W ~.",
"n x b - {.I # # 6 ).@ . v + p $. =.=+=@=#=$=  m ^%n+'$%=&=*===-=;=:#  !+n 4+n e@>=- G A.n w ,=r+++  ",
"p > } / D # @ s 9.3.d   X '=^ . >.u s % )=b b c !=}   ~={=]=^=/=% u   )=  _ . j.d < w . (=- 5.,@n   "};
