/* XPM */
static char * collectible_xpm[] = {
"50 50 839 2",
"  	c #A8D862",
". 	c #A7D75F",
"+ 	c #AADA62",
"@ 	c #A3D35B",
"# 	c #A2D25C",
"$ 	c #A9D963",
"% 	c #A3D25E",
"& 	c #A4D35F",
"* 	c #A9D864",
"= 	c #ACDD67",
"- 	c #A1D25C",
"; 	c #A5D660",
"> 	c #AADB65",
", 	c #A0D15B",
"' 	c #A2D35E",
") 	c #AADB66",
"! 	c #A6D762",
"~ 	c #A5D663",
"{ 	c #A6D764",
"] 	c #A8D966",
"^ 	c #AADB68",
"/ 	c #9FD05D",
"( 	c #A3D260",
"_ 	c #A6D563",
": 	c #A8D765",
"< 	c #A5D462",
"[ 	c #A1D05E",
"} 	c #A7D664",
"| 	c #ADDC6A",
"1 	c #A6D561",
"2 	c #A4D45E",
"3 	c #ACDC66",
"4 	c #AADA64",
"5 	c #A6D660",
"6 	c #A7D75D",
"7 	c #A3D359",
"8 	c #9ACA50",
"9 	c #99C951",
"0 	c #A1D159",
"a 	c #A7D761",
"b 	c #A5D460",
"c 	c #A8D763",
"d 	c #A6D761",
"e 	c #A0D259",
"f 	c #A1D35A",
"g 	c #A4D65D",
"h 	c #A4D55F",
"i 	c #A7D862",
"j 	c #9DCE59",
"k 	c #A4D562",
"l 	c #A6D666",
"m 	c #A8D868",
"n 	c #A4D464",
"o 	c #9DCD5D",
"p 	c #89B846",
"q 	c #9AC957",
"r 	c #A4D361",
"s 	c #95C452",
"t 	c #8FBE4C",
"u 	c #99C856",
"v 	c #BCEC74",
"w 	c #C5F57D",
"x 	c #B7E76F",
"y 	c #A5D55F",
"z 	c #A6D65E",
"A 	c #98C850",
"B 	c #95C54F",
"C 	c #9ECE58",
"D 	c #A7D662",
"E 	c #ACDE65",
"F 	c #A9DA64",
"G 	c #A2D35D",
"H 	c #A7D863",
"I 	c #A3D461",
"J 	c #A2D262",
"K 	c #9CCC5C",
"L 	c #86B543",
"M 	c #A2D15F",
"N 	c #9FCE5C",
"O 	c #93C250",
"P 	c #8EBD4B",
"Q 	c #A1D15B",
"R 	c #BBEB73",
"S 	c #C7F77F",
"T 	c #A0D058",
"U 	c #A3D35D",
"V 	c #BAEB75",
"W 	c #BDEF76",
"X 	c #9FD05A",
"Y 	c #B1E26C",
"Z 	c #BBEC76",
"` 	c #B2E36E",
" .	c #ACDD68",
"..	c #A5D661",
"+.	c #9FCF5F",
"@.	c #94C351",
"#.	c #A9D866",
"$.	c #9FCF59",
"%.	c #B2E26A",
"&.	c #B3E36B",
"*.	c #A7D666",
"=.	c #AAD967",
"-.	c #CAFB86",
";.	c #C1F27C",
">.	c #BFF07B",
",.	c #CCFD88",
"'.	c #B6E772",
").	c #A4D560",
"!.	c #A7D865",
"~.	c #9BCA58",
"{.	c #8CBB49",
"].	c #9ECD5B",
"^.	c #ABDA68",
"/.	c #A5D362",
"(.	c #A4D45C",
"_.	c #B5E56D",
":.	c #A8D767",
"<.	c #ACDB69",
"[.	c #B3E46F",
"}.	c #B7E872",
"|.	c #B4E56F",
"1.	c #B9EA75",
"2.	c #A3D45F",
"3.	c #98C755",
"4.	c #A9D766",
"5.	c #9BC65C",
"6.	c #73923E",
"7.	c #3E4609",
"8.	c #3E480A",
"9.	c #99C45A",
"0.	c #ABDB65",
"a.	c #A2D25A",
"b.	c #AFDF67",
"c.	c #A4D363",
"d.	c #A5D464",
"e.	c #A7D568",
"f.	c #9CCD5A",
"g.	c #AEDF6A",
"h.	c #C3F47F",
"i.	c #C2F37E",
"j.	c #ADDE69",
"k.	c #A0D15C",
"l.	c #A9DA65",
"m.	c #96C356",
"n.	c #8AB24F",
"o.	c #A1D15F",
"p.	c #92BB56",
"q.	c #81A54A",
"r.	c #404A0D",
"s.	c #454F15",
"t.	c #49561B",
"u.	c #586E28",
"v.	c #A1D060",
"w.	c #A3D262",
"x.	c #A6D467",
"y.	c #B5E671",
"z.	c #BDEE79",
"A.	c #97C457",
"B.	c #637D31",
"C.	c #424B11",
"D.	c #759640",
"E.	c #A1D25D",
"F.	c #8FB854",
"G.	c #637628",
"H.	c #59671D",
"I.	c #4A551C",
"J.	c #4A551B",
"K.	c #586F29",
"L.	c #92C151",
"M.	c #AEDD6B",
"N.	c #A2D15D",
"O.	c #A5D366",
"P.	c #A9D868",
"Q.	c #8AB34F",
"R.	c #424C11",
"S.	c #49551B",
"T.	c #455016",
"U.	c #64812F",
"V.	c #769D3B",
"W.	c #A8D964",
"X.	c #8CB350",
"Y.	c #657A2A",
"Z.	c #708229",
"`.	c #6D7E27",
" +	c #444E13",
".+	c #404A0E",
"++	c #91BA55",
"@+	c #9DCC5C",
"#+	c #8AB24E",
"$+	c #49551A",
"%+	c #465218",
"&+	c #4A5A1B",
"*+	c #82A848",
"=+	c #627527",
"-+	c #708228",
";+	c #73862B",
">+	c #525F20",
",+	c #465017",
"'+	c #3F4B0E",
")+	c #83A74B",
"!+	c #9AC65B",
"~+	c #9AC85C",
"{+	c #97C458",
"]+	c #7FA447",
"^+	c #4B5417",
"/+	c #505B1D",
"(+	c #49541A",
"_+	c #475219",
":+	c #485419",
"<+	c #434E13",
"[+	c #81A648",
"}+	c #A3D360",
"|+	c #91B953",
"1+	c #738522",
"2+	c #7D912C",
"3+	c #6F8128",
"4+	c #4F5C1D",
"5+	c #59702A",
"6+	c #7B9E45",
"7+	c #A0CF5B",
"8+	c #A6D565",
"9+	c #8AB250",
"0+	c #89B14F",
"a+	c #80902A",
"b+	c #7F8A1B",
"c+	c #85901F",
"d+	c #8D9922",
"e+	c #8D9923",
"f+	c #5D6A1A",
"g+	c #495514",
"h+	c #3D4B10",
"i+	c #445016",
"j+	c #8CA32B",
"k+	c #AFD02B",
"l+	c #88A029",
"m+	c #52601C",
"n+	c #6B8839",
"o+	c #9FCE5A",
"p+	c #9ACA52",
"q+	c #86AC4E",
"r+	c #8F981C",
"s+	c #8E991B",
"t+	c #8E981C",
"u+	c #B5C021",
"v+	c #BDC822",
"w+	c #BEC822",
"x+	c #A0AC24",
"y+	c #8D991D",
"z+	c #4A5613",
"A+	c #39470C",
"B+	c #768D21",
"C+	c #8BA524",
"D+	c #B1D22C",
"E+	c #8DA62C",
"F+	c #5F6E20",
"G+	c #6C8A3A",
"H+	c #A1CF60",
"I+	c #A9D961",
"J+	c #95C54D",
"K+	c #90BA56",
"L+	c #8F9921",
"M+	c #BEC823",
"N+	c #BEC722",
"O+	c #B8C321",
"P+	c #8C961B",
"Q+	c #7C9121",
"R+	c #ACCC2A",
"S+	c #B8D92D",
"T+	c #ACCC2B",
"U+	c #73862A",
"V+	c #5C6C20",
"W+	c #607830",
"X+	c #9DCA5D",
"Y+	c #9CCC52",
"Z+	c #A0D056",
"`+	c #82803D",
" @	c #A84C21",
".@	c #8C9526",
"+@	c #A2AB25",
"@@	c #A2AB24",
"#@	c #A3AB25",
"$@	c #9BA524",
"%@	c #91A328",
"&@	c #B0D12C",
"*@	c #B7D92D",
"=@	c #81982D",
"-@	c #72872A",
";@	c #5C6C21",
">@	c #39460B",
",@	c #546926",
"'@	c #698636",
")@	c #A2D160",
"!@	c #A3CF5F",
"~@	c #8A7D3B",
"{@	c #B82F22",
"]@	c #C23222",
"^@	c #A7491F",
"/@	c #7F831F",
"(@	c #97A022",
"_@	c #9AA322",
":@	c #959E22",
"<@	c #878F24",
"[@	c #999E26",
"}@	c #D8D321",
"|@	c #C8D627",
"1@	c #91AA31",
"2@	c #687C22",
"3@	c #536811",
"4@	c #485911",
"5@	c #404F0F",
"6@	c #39460A",
"7@	c #658134",
"8@	c #A6D365",
"9@	c #A5D55D",
"0@	c #A0CF5D",
"a@	c #97C652",
"b@	c #9DC85A",
"c@	c #93853E",
"d@	c #B22D20",
"e@	c #C13222",
"f@	c #B32F23",
"g@	c #844725",
"h@	c #7E811F",
"i@	c #899220",
"j@	c #909921",
"k@	c #919B21",
"l@	c #959A23",
"m@	c #CECA20",
"n@	c #D7D321",
"o@	c #CED525",
"p@	c #AEC929",
"q@	c #A1BF27",
"r@	c #B0D12D",
"s@	c #809726",
"t@	c #576914",
"u@	c #546811",
"v@	c #546812",
"w@	c #42530F",
"x@	c #384609",
"y@	c #6C893A",
"z@	c #9ECB60",
"A@	c #A3D164",
"B@	c #A8D669",
"C@	c #A2D161",
"D@	c #89A646",
"E@	c #9E261C",
"F@	c #E24D33",
"G@	c #E34D32",
"H@	c #D64B35",
"I@	c #97502E",
"J@	c #6E5323",
"K@	c #786C25",
"L@	c #9BA224",
"M@	c #CBC822",
"N@	c #C4C322",
"O@	c #8B9821",
"P@	c #70851D",
"Q@	c #9EBA26",
"R@	c #5C6B18",
"S@	c #526510",
"T@	c #42530E",
"U@	c #394609",
"V@	c #698538",
"W@	c #9ECB5F",
"X@	c #A4D265",
"Y@	c #8EB94D",
"Z@	c #8C652D",
"`@	c #B42E20",
" #	c #DC472F",
".#	c #EA5135",
"+#	c #FF5F3D",
"@#	c #E7563A",
"##	c #D94E36",
"$#	c #BA5A2E",
"%#	c #B2B424",
"&#	c #DCD823",
"*#	c #C5C420",
"=#	c #8B9822",
"-#	c #70851F",
";#	c #98B525",
">#	c #839922",
",#	c #768D1C",
"'#	c #516410",
")#	c #39450A",
"!#	c #668136",
"~#	c #6F8C3C",
"{#	c #85AA4D",
"]#	c #97BE55",
"^#	c #91241C",
"/#	c #EA5134",
"(#	c #D66334",
"_#	c #BABA1D",
":#	c #A4AA20",
"<#	c #B5CA26",
"[#	c #B5D62D",
"}#	c #95AE27",
"|#	c #869E23",
"1#	c #526511",
"2#	c #3A460A",
"3#	c #47571A",
"4#	c #87AD4E",
"5#	c #93C34D",
"6#	c #A0D05A",
"7#	c #96B051",
"8#	c #9B281F",
"9#	c #E24C32",
"0#	c #FE5F3D",
"a#	c #FE7959",
"b#	c #FE977A",
"c#	c #FAB59A",
"d#	c #FB7F64",
"e#	c #FE5E3C",
"f#	c #EB6138",
"g#	c #A3A626",
"h#	c #E2E126",
"i#	c #DDDA23",
"j#	c #DAD522",
"k#	c #D6D322",
"l#	c #C5D629",
"m#	c #72891C",
"n#	c #445411",
"o#	c #404F12",
"p#	c #7A9C44",
"q#	c #A1D05C",
"r#	c #99C953",
"s#	c #94C44E",
"t#	c #9CCC56",
"u#	c #80211A",
"v#	c #CB3B29",
"w#	c #ED5437",
"x#	c #FB8466",
"y#	c #FDBEA2",
"z#	c #FDB499",
"A#	c #F67A63",
"B#	c #F23319",
"C#	c #FB5836",
"D#	c #A2A626",
"E#	c #E2E125",
"F#	c #E1DF24",
"G#	c #D4D725",
"H#	c #BCD82B",
"I#	c #B2D32B",
"J#	c #8BA323",
"K#	c #91AC2B",
"L#	c #546810",
"M#	c #586E29",
"N#	c #DB4730",
"O#	c #FF5F3C",
"P#	c #FCB094",
"Q#	c #FDB79B",
"R#	c #F98267",
"S#	c #F54126",
"T#	c #F64427",
"U#	c #FC5C3A",
"V#	c #E0DE24",
"W#	c #D6DB26",
"X#	c #CFDC2A",
"Y#	c #BBDA2D",
"Z#	c #8CA125",
"`#	c #6C5D23",
" $	c #B7D92E",
".$	c #85A020",
"+$	c #4D5E0E",
"@$	c #576E28",
"#$	c #AAD965",
"$$	c #80201A",
"%$	c #DB513C",
"&$	c #FD7254",
"*$	c #FC9377",
"=$	c #FEB99D",
"-$	c #FDB094",
";$	c #F95132",
">$	c #F33219",
",$	c #F95231",
"'$	c #EA6038",
")$	c #A2A726",
"!$	c #E3E126",
"~$	c #C5C727",
"{$	c #90A22A",
"]$	c #744328",
"^$	c #77342A",
"/$	c #807F28",
"($	c #A8C62A",
"_$	c #A8C828",
":$	c #48580E",
"<$	c #556B25",
"[$	c #96C551",
"}$	c #98C852",
"|$	c #9DCD55",
"1$	c #7F2119",
"2$	c #DC5642",
"3$	c #FE7B5F",
"4$	c #FCA98D",
"5$	c #FEBEA1",
"6$	c #FBB094",
"7$	c #FD5C3B",
"8$	c #FB5838",
"9$	c #FD5D3A",
"0$	c #FA7456",
"a$	c #CCA479",
"b$	c #899022",
"c$	c #889121",
"d$	c #899023",
"e$	c #806F27",
"f$	c #763B27",
"g$	c #773A29",
"h$	c #84262C",
"i$	c #992B2B",
"j$	c #792E2A",
"k$	c #777526",
"l$	c #ADCC2C",
"m$	c #B5D62C",
"n$	c #8FAB21",
"o$	c #48570C",
"p$	c #3F4B08",
"q$	c #506310",
"r$	c #536921",
"s$	c #87B642",
"t$	c #8FBF49",
"u$	c #92C24A",
"v$	c #83B33D",
"w$	c #95C450",
"x$	c #796630",
"y$	c #FD4534",
"z$	c #FE4532",
"A$	c #FC654B",
"B$	c #FE7B60",
"C$	c #FB785D",
"D$	c #FBB396",
"E$	c #FEBEA0",
"F$	c #FC977C",
"G$	c #FE7F63",
"H$	c #FDDBC0",
"I$	c #DF9D86",
"J$	c #9D423E",
"K$	c #9E413E",
"L$	c #9E423D",
"M$	c #DF6A54",
"N$	c #FD523D",
"O$	c #FD4532",
"P$	c #E53E30",
"Q$	c #9C2E2E",
"R$	c #7E242B",
"S$	c #685C1D",
"T$	c #A3C32A",
"U$	c #84A11D",
"V$	c #5B6C17",
"W$	c #5E7425",
"X$	c #92BE50",
"Y$	c #97C74F",
"Z$	c #79642F",
"`$	c #FE4531",
" %	c #FD644B",
".%	c #FD7558",
"+%	c #FE6243",
"@%	c #FE7051",
"#%	c #FBA386",
"$%	c #FD856A",
"%%	c #FBCFB8",
"&%	c #FDD7BF",
"*%	c #F8977C",
"=%	c #EC6C51",
"-%	c #EF6D52",
";%	c #FD795D",
">%	c #FE7A5E",
",%	c #FE7A5F",
"'%	c #FC7157",
")%	c #FE4E39",
"!%	c #E53E2F",
"~%	c #B0332F",
"{%	c #9D2E2E",
"]%	c #7E232D",
"^%	c #9DBA27",
"/%	c #9EBA27",
"(%	c #8CA822",
"_%	c #7E9C1A",
":%	c #748F18",
"<%	c #708F3C",
"[%	c #9AC955",
"}%	c #8BBB45",
"|%	c #8EBE48",
"1%	c #9DCD57",
"2%	c #79642E",
"3%	c #FC5641",
"4%	c #FE5A3F",
"5%	c #FE5237",
"6%	c #FE5538",
"7%	c #FCD1BA",
"8%	c #F67154",
"9%	c #CA4E35",
"0%	c #D45237",
"a%	c #FA765A",
"b%	c #FC7055",
"c%	c #FD523C",
"d%	c #932A2D",
"e%	c #88312A",
"f%	c #6F5324",
"g%	c #6B511F",
"h%	c #646C14",
"i%	c #647913",
"j%	c #799619",
"k%	c #6E882F",
"l%	c #8EB851",
"m%	c #90BF4B",
"n%	c #94C34F",
"o%	c #FE4733",
"p%	c #FE5036",
"q%	c #FE4F37",
"r%	c #FD593A",
"s%	c #FC957A",
"t%	c #FC997E",
"u%	c #F67055",
"v%	c #DC6048",
"w%	c #FC795E",
"x%	c #FD7B5F",
"y%	c #FC654C",
"z%	c #FE4431",
"A%	c #D34230",
"B%	c #B13330",
"C%	c #9F2D2C",
"D%	c #982A2A",
"E%	c #902729",
"F%	c #7F1F20",
"G%	c #7E9343",
"H%	c #8BB353",
"I%	c #5B6F11",
"J%	c #6F8B33",
"K%	c #96C650",
"L%	c #FD4833",
"M%	c #FD4A34",
"N%	c #FF6545",
"O%	c #F67155",
"P%	c #E55A3C",
"Q%	c #F36F53",
"R%	c #FC745A",
"S%	c #FD523E",
"T%	c #FD4C38",
"U%	c #D24130",
"V%	c #A63B29",
"W%	c #9B2B2A",
"X%	c #842220",
"Y%	c #93B154",
"Z%	c #99C55C",
"`%	c #9CC95D",
" &	c #A8D860",
".&	c #F79078",
"+&	c #FD503B",
"@&	c #FB7358",
"#&	c #FC7358",
"$&	c #B83D2D",
"%&	c #AF322F",
"&&	c #9E2C2B",
"*&	c #92B053",
"=&	c #FB634E",
"-&	c #F9A087",
";&	c #FE4530",
">&	c #F94331",
",&	c #D43A2F",
"'&	c #A32E2C",
")&	c #952828",
"!&	c #866533",
"~&	c #9ABF5A",
"{&	c #AAD969",
"]&	c #ABDA6A",
"^&	c #7A662F",
"/&	c #EC3F30",
"(&	c #F9927A",
"_&	c #FDBB9E",
":&	c #FD4533",
"<&	c #E74431",
"[&	c #D43A30",
"}&	c #B03330",
"|&	c #8B2423",
"1&	c #8B9E49",
"2&	c #79652F",
"3&	c #D9382D",
"4&	c #FD6F5C",
"5&	c #FCB398",
"6&	c #E74531",
"7&	c #C64330",
"8&	c #FD4531",
"9&	c #D93E32",
"0&	c #AA312E",
"a&	c #9E2D2B",
"b&	c #962928",
"c&	c #867036",
"d&	c #9DC65B",
"e&	c #76632D",
"f&	c #FD654E",
"g&	c #D94431",
"h&	c #C3412F",
"i&	c #D83E34",
"j&	c #B33431",
"k&	c #A62F2D",
"l&	c #9A2B2A",
"m&	c #932727",
"n&	c #84893F",
"o&	c #ACDB67",
"p&	c #97C552",
"q&	c #84231C",
"r&	c #E23B2E",
"s&	c #F64430",
"t&	c #DF4532",
"u&	c #F44531",
"v&	c #D5402E",
"w&	c #A13A29",
"x&	c #EF422F",
"y&	c #F94431",
"z&	c #D43B30",
"A&	c #B1332F",
"B&	c #B0322F",
"C&	c #A72F2D",
"D&	c #9B2B2B",
"E&	c #942828",
"F&	c #81843D",
"G&	c #86221C",
"H&	c #DB382C",
"I&	c #F64230",
"J&	c #CD4432",
"K&	c #E54330",
"L&	c #C8402D",
"M&	c #F4442F",
"N&	c #F94430",
"O&	c #B0332E",
"P&	c #912726",
"Q&	c #847F3C",
"R&	c #ABDA66",
"S&	c #86221E",
"T&	c #CF342A",
"U&	c #DC382D",
"V&	c #F6422F",
"W&	c #E84031",
"X&	c #DB3C30",
"Y&	c #AA302E",
"Z&	c #902726",
"`&	c #89853F",
" *	c #A1CD5F",
".*	c #95A44C",
"+*	c #AE2C25",
"@*	c #D0332A",
"#*	c #F9432F",
"$*	c #EF4130",
"%*	c #D13B32",
"&*	c #BD3731",
"**	c #88843F",
"=*	c #A0CB5E",
"-*	c #9ECD59",
";*	c #8EBD49",
">*	c #93C24E",
",*	c #9BC358",
"'*	c #832421",
")*	c #BC312A",
"!*	c #D0332B",
"~*	c #C33731",
"{*	c #CD3C33",
"]*	c #D83E33",
"^*	c #C13832",
"/*	c #BA3730",
"(*	c #9D2C2B",
"_*	c #75221C",
":*	c #847E3C",
"<*	c #A1CE5F",
"[*	c #A9D76A",
"}*	c #99C854",
"|*	c #ADDC68",
"1*	c #84B33F",
"2*	c #8CBB47",
"3*	c #91AF4F",
"4*	c #852220",
"5*	c #B92E29",
"6*	c #CD332A",
"7*	c #B6342E",
"8*	c #AF322E",
"9*	c #AD312F",
"0*	c #AE312F",
"a*	c #982A28",
"b*	c #932726",
"c*	c #805027",
"d*	c #746027",
"e*	c #A6D461",
"f*	c #91C04C",
"g*	c #99BF56",
"h*	c #866431",
"i*	c #952829",
"j*	c #B82F29",
"k*	c #BD312A",
"l*	c #A42E2B",
"m*	c #8F2526",
"n*	c #8C2324",
"o*	c #88592E",
"p*	c #818738",
"q*	c #95BC4D",
"r*	c #AFDE6A",
"s*	c #99BD56",
"t*	c #876433",
"u*	c #852222",
"v*	c #9C2C2B",
"w*	c #A52E2D",
"x*	c #922827",
"y*	c #862222",
"z*	c #862122",
"A*	c #899241",
"B*	c #8DA248",
"C*	c #97B851",
"D*	c #9BCA56",
"E*	c #9ABF57",
"F*	c #92B051",
"G*	c #7F221F",
"H*	c #7E201D",
"I*	c #7F1F1D",
"J*	c #857036",
"K*	c #92B250",
"L*	c #92B150",
"M*	c #A2D05D",
"N*	c #A6D468",
"O*	c #AEDD69",
"P*	c #9CC559",
"Q*	c #9CC45B",
"R*	c #A0CB5C",
"S*	c #8DBC4A",
"T*	c #AFDE6C",
"U*	c #91C04E",
"V*	c #84B341",
"W*	c #97C654",
"X*	c #8AB947",
"Y*	c #9CCB57",
"Z*	c #C5F480",
"`*	c #D0FF8A",
" =	c #B0E068",
".=	c #A2D258",
"+=	c #B8E86E",
"@=	c #C7F87B",
"#=	c #BDED75",
"$=	c #BDEC78",
"%=	c #BDED77",
"&=	c #ADDD65",
"*=	c #B5E669",
"==	c #C1F275",
"-=	c #C1F179",
"    . . . . + @ #   $ % & * = - ; > , ' ) ! ~ { ~ ~ ] ^ { / ( _ : < [ [ } | _ _ _ _ _ _ _ 1 2 $ 3 4 ",
"1 5 5 . . 6 7 8 9 0 a 5 b c d e f g h i ! j { { ~ k l m n o p q : r s t u } _ _ _ _ _ _ _ 1   v w x ",
"b y y z z z 0 A B C D c _ D h E F G d F H ! ! H ~ I n l J K L s M N O P q : _ _ _ _ _ _ _ 1 Q R S x ",
"< b b y 5 z z T C U c D _ D V W > X Y Z `  ...! ~ I n l n +.N q @.O u [ } #._ _ _ _ _ _ _ 1 $.+ %.&.",
"} 1 1 5 y y   a D c } < *.=.-.;.d , >.,.'.' ).! { k ~ ] !.k | ~.{.P ].^.^.< < /._ _ _ _ _ 1 $ (.z _.",
"*._ _ 1 1 5 y a * c < r :.<.[.V }.|.1.1. .' 2.! { k ~ ] ] { } N 3.q r 4.5.6.7.8.9._ _ _ _ 1 0.a.@ b.",
"c.< _ 1 D D b 1 } _ d.d.e.:.f.g.h.i.j.k.).l.m.n.o.2.2.! !.~ r < _ } p.q.r.s.t.t.u._ _ _ _ 1 U U 2 y ",
"v.w.< } c c * c < r d.*.x.w.k ).y.z.j...H A.B.C.D.2.E.2.k I : } } F.G.H.I.J.J.J.K._ _ _ _ 1 % $ 0.y ",
"L.*.M.} N.D N.1 #.: c.w.O.P.~ ~ ..........Q.R.S.T.U.V.E.W.2._ < X.Y.Z.`.I.J. +.+++_ _ _ _ 1 b y 5 a ",
"@+: =.& % D D D } _ d.d.x.*.~ ~ ..........#+R.$+I.%+&+*+! 2.< F.=+-+;+>+,+'+)+!+_ _ _ _ _ _ & 5 a U ",
"*.: _ b 1   $ a & & _ : *.d.~ ~ ~ ~ ~ ~+{+]+^+/+(+_+:+<+[+}+|+1+2+3+4+5+6+< _ _ _ _ _ _ _ _ & D D 7+",
"=.1 b     2 U 2 & 1 } } 8+d.~ 9+0+0+0+a+b+c+d+e+f+g+h+i+R.]+j+k+l+m+n+: } _ _ _ _ _ _ _ _ _ & D 1 o+",
"} % 1 0.y p+p+T 5 $ D b < _ q+r+s+s+t+u+v+v+v+w+x+y+z+A+B+C+D+E+F+G+H+: } _ _ _ _ _ _ _ _ _ 1 1 b N.",
"b U a I+0 J+A T   4 c b < } K+L+M+N+N+N+N+N+N+N+N+O+P+Q+R+S+T+U+V+W+X+< < _ _ _ _ _ _ _ _ _ D b b b ",
"b y a . a.Y+Z+7 . I+  a D } `+ @.@+@@@@@@@@@@@@@#@$@%@&@*@*@=@-@;@>@,@'@)@#._ _ _ _ _ _ _ _ 1 1 b 1 ",
"2 5 a z z . I+a 5 5   $ !@~@{@]@^@/@(@_@_@_@_@:@<@[@}@|@*@1@=@2@3@4@5@6@7@8@_ _ _ _ _ _ _ _ 1 1 1 1 ",
"9@y y 1 D : 0@^.=.q a@b@c@d@e@e@f@g@h@i@i@j@k@l@m@}@n@o@p@q@r@s@t@u@v@w@x@y@z@*.:.:.*.d.d.} 1 a 2 Q ",
". . D 1 8+8+A@B@C@O t D@E@e@]@F@G@H@I@J@J@K@L@M@}@}@}@N@O@P@*@Q@R@v@u@S@T@U@V@W@X@d.d.d.8+: 1 $ $ y ",
"9@. c D 8+d.P.P.w.u Y@Z@`@ #.#+#+#+#@#####$#%#&#}@}@*#=#-#;#*@Q@>#,#u@u@'#w@)#!#~#{#8+} } } o+5 4 a ",
"T y D c } d.P.:.:.} ]#^#e@/#+#+#+#+#+#+#+#(#%#&#}@}@_#:#<#[#*@Q@}#|#u@u@u@1#w@6@2#3#4#_ ( o+5#C 5 5 ",
"6#y D c } < w.w._ =.7#8#9#+#0#a#b#c#d#e#f#g#h#i#j#j#k#l#*@*@*@Q@}#*@m#u@u@u@u@n#o#p#_ 1 q#r#s#t#2 5 ",
"y a c D _ < d.c.< } u#v#w#0#x#y#z#A#B#C#f#D#E#E#E#F#G#H#*@*@I#J#}#*@K#L#u@u@u@u@M#b D 0.a $.# y a 5 ",
"a a D 1 1 1 : #.} < u#N#+#O#P#Q#R#S#T#U#f#D#E#E#E#E#V#W#X#Y#Z#`#}#*@ $.$+$u@u@u@@$7+% 4 + a.# c #$1 ",
"y y b 1 D c _ #.: r $$%$&$*$=$-$;$>$,$+#'$)$h#!$!$!$E#~$D#{$]$^$/$($ $_$:$+$u@u@<$[$}$0 @ |$5#o+* * ",
"y   a y 5   1 1 _ < 1$2$3$4$5$6$7$8$9$+#0$a$b$c$c$c$d$e$f$g$h$i$j$k$l$m$n$o$p$q$r$s$t$z 9@u$v$w$1 c ",
"# y a y 2 5 1 1 _ x$y$z$A$B$C$D$E$F$0#G$H$I$J$K$K$K$L$L$M$N$O$P$Q$R$S$l$ $T$U$V$W$X$[$}$p+Y$a@7+D D ",
"& D   5 y a 5 5 1 Z$`$`$ %.%+%@%#%$%O#%%&%*%=%-%;%3$>%,%'%)%`$!%~%{%]%k$^%/%(%_%:%<%[%}%|%1%c : _ < ",
"c c y 6#Q 5 5 5 1 2%`$`$3%4%5%6%+#+#+#%%7%8%9%0%a%3$3$b%c%`$`$!%~%~%d%e%f%g%h%i%j%k%l%m%n%& =.} ( ( ",
"D b t#B 9 0 z 5 1 2%`$`$`$`$`$o%p%q%r%s%t%u%9%v%w%3$x%y%z%A%`$!%~%B%C%D%E%F%G%H%I%J%5.( r : _ < < < ",
"* D 1%K%p+@ z z 1 2%`$`$`$`$`$`$`$`$L%M%N%O%P%Q%3$R%S%T%U%V%`$!%~%B%C%W%W%X%Y%:.Z%`%*.<.=.< } } #.=.",
"* * y T a. &z z 1 2%`$`$`$`$.&z$`$`$`$`$+&@&#&#&+&`$`$`$U%$&`$!%~%%&&&W%W%X%*&d.A@w.8+*.8+c.} _ _ #.",
"& D   z 5  &5 5 1 2%`$`$`$=&-&O$`$`$`$`$`$`$`$`$`$`$`$`$`$;&>&,&~%'&W%W%)&!&~&c.8+{&P.d.8+]&_ [ [ < ",
"% * #$5 b   c b b ^&/&`$`$(&_&:&`$`$`$<&`$`$`$`$`$`$`$`$`$`$[&}&~%'&W%W%|&1&_ _ _ _ _ _ _ _ : _ b b ",
"b D 1 & & D b 1 c 2&3&`$`$4&5&:&`$`$6&7&`$`$`$`$`$`$`$8&`$9&~%~%0&a&W%b&c&d&_ _ _ _ _ _ _ _ } _ b 1 ",
"* 1 & b D D & * c e&3&8&`$z$f&8&`$`$g&h&`$`$O$:&`$`$`$O$i&j&~%~%k&W%l&m&n&_ _ _ _ _ _ _ _ _ _ _ 1 D ",
"c % % D D & 1 o&1 p&q&r&`$`$s&s&`$`$t&u&`$`$v&w&x&`$y&z&A&~%B&C&D&W%E&F&_ _ _ _ _ _ _ _ _ _ } } } 1 ",
"& N.b c D N.b o&c [%G&H&I&8&J&J&8&`$`$8&`$`$K&L&M&N&,&~%O&}&C&W%W%P&Q&_ _ _ _ _ _ _ _ _ _ _ 8+_ } D ",
"b * R&* c c N.* R&1 S&T&U&V&6&<&`$`$`$`$`$`$`$W&X&[&~%O&Y&k&W%W%Z&`& *_ _ _ _ _ _ _ _ _ _ _ d.d.8+: ",
"% o&* 7+q##$& 1 c * .*+*@*H&#*`$`$`$`$`$`$$*%*&*~%~%O&0&&&W%W%P&**=*_ _ _ _ _ _ _ _ _ _ _ _ 8+8+d._ ",
"[%b -*;*>*& * & q#% ,*'*)*!*~*{*`$8&]*^*^*/*~%~%~%~%Y&(*W%W%_*:*<*_ _ _ _ _ _ _ _ _ _ _ _ _ [*e.d.r ",
"}*|*7+1*2*|*1 1 1 1 1 3*4*5*6*7*~%~%~%~%~%8*9*0*&&W%a*b*c*d*e*_ _ } _ < r ( 0@| =.( #.} M #.x.x.8+_ ",
"[$f*[$7+b b 1 1 1 1 1 g*h*i*j*k*~%~%~%~%8*l*W%W%m*n*o*p*q*0 * : _ < < _ : =.( } < r } _ r P.x.x.x.8+",
"w$1*m%R&r*7+1 1 1 1 1 1 s*t*u*v*k&k&k&k&w*x*y*z*A*B*C*. z   q#< =.=._ r < : <.( r =.} r _ 8+x.x.x.8+",
"-*[%D*N.D c 1 1 1 1 1 1 1 E*F*G*H*H*H*H*I*J*K*L*M*y y 9@y 5 7+_ =.r ~.u 0@=.< @.~.=._ r : d.x.N*x.8+",
"R&O** q#& o&D D D D D D D D 1 P*Q*P*P*P*P*R*D D b & % 2 b & #.<.: q {.S*].T*U*V*U*< < < =.*.N*N*x.8+",
"#$D D #$c % D D D D D D D D 1 1 1 1 1 1 1 1 b D 1 & b D c D < =.<.< u @.W*].s U*q } : _ _ d.N*N*N*8+",
"b 7+% R&* o+D D D D D D D D 5 5 5 5 1 1 1 1 & D : < < #.#._ M < =.| ^.[ O p [ _ } } =._ M d.N*N*N*8+",
"b c * 1 1 c D D D a a a a a 1 1 1 1 1 1 1 5 b c * b r } _ M M._ N M : < W*X*~.#._ 7+D 1 N.=.x.N*x.8+",
"D D } } } _ Y*Z*`* =.=+=@=#=_ 8+8+_ 1 1 5 z U a   y % b _ < 8+8+8+8+_ _ _ _ 1 % & a a 2 U 1 _ 8+8+_ ",
"1 1 _ _ } : O*$=%=&=6 *===-=8+x.8+_ _ 5 5 z (.(.9@5 D c : #.8+8+8+8+_ _ _ _ #$* a y 9@. I+4 1 _ _ _ "};
