/* XPM */
static char * exit_xpm[] = {
"50 50 849 2",
"  	c #A8D862",
". 	c #A7D75F",
"+ 	c #AADA62",
"@ 	c #A3D35B",
"# 	c #A2D25C",
"$ 	c #A9D963",
"% 	c #A3D25E",
"& 	c #A4D35F",
"* 	c #A9D864",
"= 	c #ACDD67",
"- 	c #A1D25C",
"; 	c #A5D660",
"> 	c #AADB65",
", 	c #A0D15B",
"' 	c #A2D35E",
") 	c #AADB66",
"! 	c #A6D762",
"~ 	c #A5D663",
"{ 	c #A6D764",
"] 	c #A8D966",
"^ 	c #AADB68",
"/ 	c #9FD05D",
"( 	c #A3D260",
"_ 	c #A6D563",
": 	c #A8D765",
"< 	c #A5D462",
"[ 	c #A1D05E",
"} 	c #A7D664",
"| 	c #ADDC6A",
"1 	c #A6D561",
"2 	c #A4D45E",
"3 	c #ACDC66",
"4 	c #AADA64",
"5 	c #A6D660",
"6 	c #A7D75D",
"7 	c #A3D359",
"8 	c #9ACA50",
"9 	c #99C951",
"0 	c #A1D159",
"a 	c #A7D761",
"b 	c #A5D460",
"c 	c #A8D763",
"d 	c #A6D761",
"e 	c #A0D259",
"f 	c #A1D35A",
"g 	c #A4D65D",
"h 	c #A4D55F",
"i 	c #A7D862",
"j 	c #9DCE59",
"k 	c #A4D562",
"l 	c #A6D666",
"m 	c #A8D868",
"n 	c #A4D464",
"o 	c #9DCD5D",
"p 	c #89B846",
"q 	c #9AC957",
"r 	c #A4D361",
"s 	c #95C452",
"t 	c #8FBE4C",
"u 	c #99C856",
"v 	c #BCEC74",
"w 	c #C5F57D",
"x 	c #B7E76F",
"y 	c #A5D55F",
"z 	c #A6D65E",
"A 	c #98C850",
"B 	c #95C54F",
"C 	c #9ECE58",
"D 	c #A7D662",
"E 	c #ACDE65",
"F 	c #A9DA64",
"G 	c #A2D35D",
"H 	c #8EC176",
"I 	c #79AF81",
"J 	c #79B080",
"K 	c #78AF80",
"L 	c #77AE80",
"M 	c #78AE81",
"N 	c #79B081",
"O 	c #A0D063",
"P 	c #9CCC5C",
"Q 	c #86B543",
"R 	c #A2D15F",
"S 	c #9FCE5C",
"T 	c #93C250",
"U 	c #8EBD4B",
"V 	c #A1D15B",
"W 	c #BBEB73",
"X 	c #C7F77F",
"Y 	c #A0D058",
"Z 	c #A3D35D",
"` 	c #BAEB75",
" .	c #BDEF76",
"..	c #9FD05A",
"+.	c #98C975",
"@.	c #7AB086",
"#.	c #80BEB8",
"$.	c #87C9D4",
"%.	c #88C9D4",
"&.	c #87CAD2",
"*.	c #71A788",
"=.	c #6FA57E",
"-.	c #94C351",
";.	c #A9D866",
">.	c #9FCF59",
",.	c #B2E26A",
"'.	c #B3E36B",
").	c #A7D666",
"!.	c #AAD967",
"~.	c #CAFB86",
"{.	c #C1F27C",
"].	c #92C470",
"^.	c #68A281",
"/.	c #81BEB5",
"(.	c #A8D9DC",
"_.	c #A3DCE5",
":.	c #80C2C6",
"<.	c #72B4B4",
"[.	c #71B4B4",
"}.	c #8BCED5",
"|.	c #8BCED6",
"1.	c #6EA486",
"2.	c #72A679",
"3.	c #8CBB49",
"4.	c #9ECD5B",
"5.	c #ABDA68",
"6.	c #A4D45C",
"7.	c #B5E56D",
"8.	c #A8D767",
"9.	c #ACDB69",
"0.	c #B3E46F",
"a.	c #A3D47A",
"b.	c #7BB7AD",
"c.	c #A1D5DA",
"d.	c #BEE5E8",
"e.	c #C6EDEE",
"f.	c #9CD0CF",
"g.	c #6BADA9",
"h.	c #67AAA3",
"i.	c #67A9A3",
"j.	c #71B4B1",
"k.	c #73B6B3",
"l.	c #8ACDD5",
"m.	c #84C5CB",
"n.	c #72A77D",
"o.	c #ABDB65",
"p.	c #A2D25A",
"q.	c #AFDF67",
"r.	c #A4D363",
"s.	c #A5D464",
"t.	c #A7D568",
"u.	c #8ABC69",
"v.	c #77B5AD",
"w.	c #A5D9E2",
"x.	c #C6EBED",
"y.	c #B6E6ED",
"z.	c #9EDDE9",
"A.	c #94D5E1",
"B.	c #8FD1DD",
"C.	c #8FD2DD",
"D.	c #70B3B0",
"E.	c #71B3B0",
"F.	c #94D8E3",
"G.	c #85C6CC",
"H.	c #77AA80",
"I.	c #A1D060",
"J.	c #A3D262",
"K.	c #A4D265",
"L.	c #A6D467",
"M.	c #A5D268",
"N.	c #8FBD6E",
"O.	c #75B4B2",
"P.	c #AADFE8",
"Q.	c #C9EEEF",
"R.	c #C9EEF1",
"S.	c #B0E4EC",
"T.	c #96D7E4",
"U.	c #97D7E4",
"V.	c #95D7E6",
"W.	c #94D7E7",
"X.	c #93D7E3",
"Y.	c #6EB1AE",
"Z.	c #67AAA2",
"`.	c #73B5B2",
" +	c #95D8E3",
".+	c #8ACBD3",
"++	c #70A67F",
"@+	c #A7D566",
"#+	c #A5D364",
"$+	c #A3D162",
"%+	c #A5D463",
"&+	c #92C151",
"*+	c #AEDD6B",
"=+	c #A2D15D",
"-+	c #9DC860",
";+	c #A1CC65",
">+	c #A3CE6A",
",+	c #9ABD71",
"'+	c #7A3FA6",
")+	c #7B40A5",
"!+	c #783FA3",
"~+	c #6B6B9E",
"{+	c #7BB9BB",
"]+	c #AEE3EA",
"^+	c #CBEDF0",
"/+	c #B6E5EC",
"(+	c #99D9E6",
"_+	c #B8E7EC",
":+	c #CAEDF1",
"<+	c #ACE2EB",
"[+	c #96D8E7",
"}+	c #94D7E6",
"|+	c #96D8E5",
"1+	c #6FB2AF",
"2+	c #68A9A4",
"3+	c #68AAA3",
"4+	c #72B4B2",
"5+	c #88CBD3",
"6+	c #618D9A",
"7+	c #7240A0",
"8+	c #7C41A5",
"9+	c #7D45A7",
"0+	c #888C8F",
"a+	c #A0CC67",
"b+	c #A4D164",
"c+	c #9DCC5C",
"d+	c #9AC461",
"e+	c #9DC566",
"f+	c #8351AA",
"g+	c #864BB0",
"h+	c #915BB9",
"i+	c #B586D7",
"j+	c #B187D4",
"k+	c #968FC0",
"l+	c #79BBBF",
"m+	c #A8E0EB",
"n+	c #C6ECEF",
"o+	c #C8ECEF",
"p+	c #B0E3EA",
"q+	c #AEE1EB",
"r+	c #C8EDEF",
"s+	c #CBEEEE",
"t+	c #C5EAEE",
"u+	c #A1DCE8",
"v+	c #94D7E5",
"w+	c #67AAA5",
"x+	c #8FD0DA",
"y+	c #799DAE",
"z+	c #B08DCF",
"A+	c #BB92D7",
"B+	c #A06DC6",
"C+	c #864CB0",
"D+	c #8951B2",
"E+	c #8B59B5",
"F+	c #939B8F",
"G+	c #9CC466",
"H+	c #A3D063",
"I+	c #9CC568",
"J+	c #8C68AB",
"K+	c #854DAF",
"L+	c #B585D7",
"M+	c #B07FD4",
"N+	c #AF7FD3",
"O+	c #B07FD3",
"P+	c #9E85C5",
"Q+	c #6BACAD",
"R+	c #91D6E2",
"S+	c #8ED0DA",
"T+	c #A4DBE2",
"U+	c #B1E4EC",
"V+	c #94D8E6",
"W+	c #B1E3EB",
"X+	c #C2E9EE",
"Y+	c #A4DFE9",
"Z+	c #8DD0DB",
"`+	c #71B2AF",
" @	c #89CCD5",
".@	c #6A85A0",
"+@	c #9855C8",
"@@	c #A268CF",
"#@	c #B78DD7",
"$@	c #C5A1DD",
"%@	c #AA80C9",
"&@	c #8A56B2",
"*@	c #94A586",
"=@	c #A3D065",
"-@	c #A0CF5B",
";@	c #7C649B",
">@	c #C49EE0",
",@	c #B688D7",
"'@	c #AE7AD5",
")@	c #9855C7",
"!@	c #9755C8",
"~@	c #8C64BC",
"{@	c #74A0AF",
"]@	c #83C4CB",
"^@	c #72B4B3",
"/@	c #7DC1C2",
"(@	c #91D3E0",
"_@	c #95D8E6",
":@	c #6AADA8",
"<@	c #67ABA3",
"[@	c #69ADA6",
"}@	c #78BABB",
"|@	c #85C0CC",
"1@	c #777AAA",
"2@	c #9855C9",
"3@	c #A269CC",
"4@	c #B382D6",
"5@	c #BF97DC",
"6@	c #9D6FC2",
"7@	c #95B476",
"8@	c #9FCE5A",
"9@	c #9ABD6D",
"0@	c #8E6BAE",
"a@	c #B384D6",
"b@	c #AD7AD2",
"c@	c #9755C7",
"d@	c #9956C8",
"e@	c #9A59C8",
"f@	c #9B5CCA",
"g@	c #9572C2",
"h@	c #7EA8B7",
"i@	c #8BCED8",
"j@	c #89CDD6",
"k@	c #73B4B1",
"l@	c #77B9BA",
"m@	c #8ACCD4",
"n@	c #90D5DF",
"o@	c #94D8E7",
"p@	c #8BCDD6",
"q@	c #6FB1AD",
"r@	c #68ABA2",
"s@	c #68ABA4",
"t@	c #6BADA8",
"u@	c #76BABA",
"v@	c #7ABDBF",
"w@	c #81BDC8",
"x@	c #787AAC",
"y@	c #9954CA",
"z@	c #A971D1",
"A@	c #B687D6",
"B@	c #9F6CC4",
"C@	c #929F8D",
"D@	c #A2CE64",
"E@	c #7F6C97",
"F@	c #B68BD5",
"G@	c #AC78D1",
"H@	c #9756C7",
"I@	c #9956C9",
"J@	c #A166CC",
"K@	c #A872D1",
"L@	c #AE79D3",
"M@	c #A58AC8",
"N@	c #7FA7B8",
"O@	c #81C1CA",
"P@	c #7FC0C5",
"Q@	c #7DBFC2",
"R@	c #85C7CF",
"S@	c #6FB0AD",
"T@	c #7DBEC0",
"U@	c #7EBFC1",
"V@	c #80C1C9",
"W@	c #7FBAC4",
"X@	c #8687B2",
"Y@	c #9C5CCB",
"Z@	c #9A59CA",
"`@	c #A971D0",
" #	c #B687D7",
".#	c #BB90D9",
"+#	c #9462BB",
"@#	c #9ABC72",
"##	c #7E6C96",
"$#	c #BA93D7",
"%#	c #A670D0",
"&#	c #9856C8",
"*#	c #9957C8",
"=#	c #9F62CB",
"-#	c #A369CD",
";#	c #B786D8",
">#	c #A589C9",
",#	c #8490AF",
"'#	c #81A6B8",
")#	c #7EC0C4",
"!#	c #7CBFC1",
"~#	c #7FC2C7",
"{#	c #7FBAC3",
"]#	c #8591AF",
"^#	c #8E8EB8",
"/#	c #B482D6",
"(#	c #A76FD0",
"_#	c #9F62CC",
":#	c #9D5EC9",
"<#	c #9E60CA",
"[#	c #AD7AD4",
"}#	c #BD95DA",
"|#	c #9767BD",
"1#	c #98BA70",
"2#	c #90A879",
"3#	c #9D74BD",
"4#	c #BC94D9",
"5#	c #A46DCD",
"6#	c #A266CD",
"7#	c #AF7CD4",
"8#	c #A18BC6",
"9#	c #868DB1",
"0#	c #868DB0",
"a#	c #81AEBD",
"b#	c #7FC2C6",
"c#	c #80C2C7",
"d#	c #838FAF",
"e#	c #8E8DB8",
"f#	c #B686D7",
"g#	c #B17FD4",
"h#	c #9F63CB",
"i#	c #9D60C9",
"j#	c #AC79D1",
"k#	c #BB8ED8",
"l#	c #B98DD9",
"m#	c #AA78CE",
"n#	c #918D9C",
"o#	c #9FC868",
"p#	c #A5D55D",
"q#	c #92AC7A",
"r#	c #A581C0",
"s#	c #9967BF",
"t#	c #A871D0",
"u#	c #A56CCE",
"v#	c #9856C9",
"w#	c #9B5BC9",
"x#	c #9D5DCA",
"y#	c #A367CC",
"z#	c #AC77D1",
"A#	c #AF7CD3",
"B#	c #B587D6",
"C#	c #B587D5",
"D#	c #B487D6",
"E#	c #9D8BC3",
"F#	c #8D8DB7",
"G#	c #8D8EB6",
"H#	c #8E8DB7",
"I#	c #B389D5",
"J#	c #B488D5",
"K#	c #B384D5",
"L#	c #AB76D1",
"M#	c #A872D0",
"N#	c #9D61CB",
"O#	c #9B5AC9",
"P#	c #9F61CB",
"Q#	c #A771CF",
"R#	c #B083D5",
"S#	c #BC91DB",
"T#	c #AE82CE",
"U#	c #9F71C3",
"V#	c #92909A",
"W#	c #A0C86B",
"X#	c #94AF7A",
"Y#	c #92AA7F",
"Z#	c #9162B8",
"`#	c #9663BC",
" $	c #AA76D2",
".$	c #A670CF",
"+$	c #9956CB",
"@$	c #9B5BC8",
"#$	c #9C5DCA",
"$$	c #A368CD",
"%$	c #A872CE",
"&$	c #A873CE",
"*$	c #AE7BD1",
"=$	c #B686D6",
"-$	c #B486D6",
";$	c #A772CF",
">$	c #A972CF",
",$	c #A670CE",
"'$	c #9B59C9",
")$	c #A062CC",
"!$	c #B587D7",
"~$	c #AD80CE",
"{$	c #9A6CBD",
"]$	c #938B9D",
"^$	c #91AA7F",
"/$	c #9EC76B",
"($	c #A6D565",
"_$	c #95B17C",
":$	c #93A784",
"<$	c #945FBA",
"[$	c #9864BF",
"}$	c #AA76D1",
"|$	c #AD7DD1",
"1$	c #B68AD7",
"2$	c #9B5ACB",
"3$	c #9B5ACA",
"4$	c #9D5ECA",
"5$	c #A469CE",
"6$	c #AE7CD2",
"7$	c #A973D0",
"8$	c #A062CB",
"9$	c #9E61CA",
"0$	c #A061CB",
"a$	c #AE7FD3",
"b$	c #B78CD7",
"c$	c #A879CA",
"d$	c #945FBB",
"e$	c #9388A1",
"f$	c #93AE7B",
"g$	c #9DC46E",
"h$	c #A9D868",
"i$	c #A5D367",
"j$	c #95B475",
"k$	c #93A780",
"l$	c #945DBC",
"m$	c #9763BD",
"n$	c #B181D2",
"o$	c #AA76D0",
"p$	c #A976CF",
"q$	c #AA77CF",
"r$	c #AD7AD1",
"s$	c #B180D3",
"t$	c #AB77D3",
"u$	c #AA72D1",
"v$	c #A972D1",
"w$	c #A063CB",
"x$	c #9E61CD",
"y$	c #B68ED4",
"z$	c #AC79D0",
"A$	c #AF7FD2",
"B$	c #9763BE",
"C$	c #9D6BC1",
"D$	c #9287A3",
"E$	c #97B576",
"F$	c #9EC56D",
"G$	c #93C34D",
"H$	c #A0D05A",
"I$	c #A8D667",
"J$	c #9BC16B",
"K$	c #92B762",
"L$	c #879C76",
"M$	c #864CAF",
"N$	c #9A68BF",
"O$	c #BC93D9",
"P$	c #BE95DA",
"Q$	c #B586D6",
"R$	c #BF9ADA",
"S$	c #BA8FDA",
"T$	c #B180D5",
"U$	c #C19ADE",
"V$	c #B283D6",
"W$	c #B181D5",
"X$	c #B181D6",
"Y$	c #AA78D0",
"Z$	c #854FB1",
"`$	c #8B59B1",
" %	c #854DB0",
".%	c #88799C",
"+%	c #9BC16C",
"@%	c #9EC46F",
"#%	c #9EC867",
"$%	c #A1D05C",
"%%	c #99C953",
"&%	c #94C44E",
"*%	c #9CCC56",
"=%	c #9DCB5C",
"-%	c #96BF63",
";%	c #9CC56A",
">%	c #9AC369",
",%	c #919F89",
"'%	c #8853B1",
")%	c #8A55B1",
"!%	c #864DB0",
"~%	c #8B56B2",
"{%	c #8751B2",
"]%	c #854DB1",
"^%	c #864DB1",
"/%	c #8C59B3",
"(%	c #886BA4",
"_%	c #9AC464",
":%	c #9AC365",
"<%	c #9DC669",
"[%	c #A1CC68",
"}%	c #A5D365",
"|%	c #9FCC61",
"1%	c #BAC77C",
"2%	c #DCD99A",
"3%	c #E4E4A5",
"4%	c #E4E4A6",
"5%	c #E4E3A5",
"6%	c #CFC78E",
"7%	c #A2CE62",
"8%	c #AAD965",
"9%	c #A3D164",
"0%	c #C4D57B",
"a%	c #E8E89B",
"b%	c #F0F4A7",
"c%	c #F0F4A6",
"d%	c #F0F3AA",
"e%	c #F0F3A7",
"f%	c #DAD58E",
"g%	c #96C551",
"h%	c #98C852",
"i%	c #9DCD55",
"j%	c #C4D47D",
"k%	c #E8E99C",
"l%	c #EFF3A9",
"m%	c #F0F4A9",
"n%	c #FBFCED",
"o%	c #F0F3AF",
"p%	c #D9D58D",
"q%	c #AAD665",
"r%	c #98C755",
"s%	c #87B642",
"t%	c #8FBF49",
"u%	c #92C24A",
"v%	c #83B33D",
"w%	c #95C450",
"x%	c #A5D366",
"y%	c #BFD578",
"z%	c #E7E59A",
"A%	c #EFF4A5",
"B%	c #F7F9DC",
"C%	c #F3F6BE",
"D%	c #EFF4AD",
"E%	c #FBFDF2",
"F%	c #F1F3B6",
"G%	c #F1F4A7",
"H%	c #D4D586",
"I%	c #AAD969",
"J%	c #9AC955",
"K%	c #9ACA52",
"L%	c #97C74F",
"M%	c #97C652",
"N%	c #C1D478",
"O%	c #E6E59A",
"P%	c #EFF5A7",
"Q%	c #F0F4A8",
"R%	c #F7FAE2",
"S%	c #FCFEFB",
"T%	c #FAFCED",
"U%	c #F0F3AB",
"V%	c #D4D486",
"W%	c #8BBB45",
"X%	c #8EBE48",
"Y%	c #9DCD57",
"Z%	c #C0D377",
"`%	c #EFF3A6",
" &	c #FBFCF3",
".&	c #F0F3AE",
"+&	c #D4D386",
"@&	c #A0CF5F",
"#&	c #A0CF5D",
"$&	c #90BF4B",
"%&	c #94C34F",
"&&	c #C0D376",
"*&	c #F0F4AB",
"=&	c #F0F5A9",
"-&	c #EFF3A8",
";&	c #F8FAE1",
">&	c #F1F4AD",
",&	c #D3D285",
"'&	c #96C64E",
")&	c #96C650",
"!&	c #ADD66A",
"~&	c #CCD984",
"{&	c #EBEBAD",
"]&	c #F5F8D1",
"^&	c #F4F8CB",
"/&	c #F1F5B0",
"(&	c #DBDB90",
"_&	c #A8C963",
":&	c #A8D860",
"<&	c #BED476",
"[&	c #E4E296",
"}&	c #F2F7C6",
"|&	c #F9FDF1",
"1&	c #F9FCEA",
"2&	c #F3F6BB",
"3&	c #F3F7C3",
"4&	c #F1F4AB",
"5&	c #EDEFA2",
"6&	c #D2D582",
"7&	c #A2D258",
"8&	c #BDD375",
"9&	c #E4E297",
"0&	c #F4F7CA",
"a&	c #F2F5BC",
"b&	c #F6F8D5",
"c&	c #F0F4AD",
"d&	c #EFF4A7",
"e&	c #EDF0A3",
"f&	c #D3D683",
"g&	c #ABDA6A",
"h&	c #ACDB67",
"i&	c #BED576",
"j&	c #F0F4A5",
"k&	c #F7F9D2",
"l&	c #F0F4AA",
"m&	c #F5F8CB",
"n&	c #EDEFA3",
"o&	c #D4D685",
"p&	c #9DCC58",
"q&	c #B1D26B",
"r&	c #D7DC8E",
"s&	c #EBEDA1",
"t&	c #EEF2A5",
"u&	c #E3E498",
"v&	c #C2D57C",
"w&	c #92C14D",
"x&	c #BDD574",
"y&	c #E6E398",
"z&	c #F3F8CC",
"A&	c #F1F7BE",
"B&	c #F2F5BA",
"C&	c #F0F3AC",
"D&	c #EBEEA1",
"E&	c #D3D687",
"F&	c #BDD575",
"G&	c #F1F5B8",
"H&	c #F0F5B0",
"I&	c #F1F5AF",
"J&	c #D3D688",
"K&	c #ABDA66",
"L&	c #BBD377",
"M&	c #E5E296",
"N&	c #EFF4A9",
"O&	c #FBFCE5",
"P&	c #BADA7C",
"Q&	c #E0E498",
"R&	c #E5E396",
"S&	c #FAFCE9",
"T&	c #FDFEFA",
"U&	c #F7FAE5",
"V&	c #EBEEA2",
"W&	c #D4D689",
"X&	c #9ECD59",
"Y&	c #8EBD49",
"Z&	c #93C24E",
"`&	c #BCD67A",
" *	c #EEF1A5",
".*	c #F8FAE4",
"+*	c #F0F4B0",
"@*	c #F1F5B4",
"#*	c #FEFFF2",
"$*	c #F1F4B4",
"%*	c #E8EB9E",
"&*	c #CBD47F",
"**	c #A9D76A",
"=*	c #99C854",
"-*	c #ADDC68",
";*	c #84B33F",
">*	c #8CBB47",
",*	c #BBD378",
"'*	c #E4E295",
")*	c #F5F8CE",
"!*	c #F4F7C7",
"~*	c #EFF4A8",
"{*	c #F1F3AC",
"]*	c #F0F4AC",
"^*	c #F0F5A6",
"/*	c #D1D480",
"(*	c #91C04C",
"_*	c #EFF2A8",
":*	c #F0F3A5",
"<*	c #F7FADE",
"[*	c #F3F6C0",
"}*	c #AFDE6A",
"|*	c #A7D564",
"1*	c #BFD57C",
"2*	c #EEF2A4",
"3*	c #9BCA56",
"4*	c #BFDD7C",
"5*	c #E7E79C",
"6*	c #E6E298",
"7*	c #ECEFA2",
"8*	c #ECEFA3",
"9*	c #E6E599",
"0*	c #E2DB90",
"a*	c #E2DC99",
"b*	c #E2DC94",
"c*	c #E1DB90",
"d*	c #ECF0A3",
"e*	c #EDF0A4",
"f*	c #9FC85D",
"g*	c #9BCA58",
"h*	c #A6D468",
"i*	c #AEDD69",
"j*	c #BAD471",
"k*	c #E4E095",
"l*	c #E8E79A",
"m*	c #E2DD90",
"n*	c #E2DD92",
"o*	c #E9E89D",
"p*	c #F5F8D2",
"q*	c #F3F6BD",
"r*	c #E2DE92",
"s*	c #E6E296",
"t*	c #ECEFA1",
"u*	c #C9CD80",
"v*	c #AFDE6C",
"w*	c #91C04E",
"x*	c #84B341",
"y*	c #B9D470",
"z*	c #DDD58B",
"A*	c #E7E79B",
"B*	c #CBCF82",
"C*	c #97C654",
"D*	c #B1D56C",
"E*	c #CAD57F",
"F*	c #D6DD8D",
"G*	c #E9E99D",
"H*	c #E2E497",
"I*	c #CBD681",
"J*	c #BED177",
"K*	c #B2D56D",
"L*	c #C8D47D",
"M*	c #C7D47B",
"N*	c #D8DE8F",
"O*	c #E7E89D",
"P*	c #E8E89D",
"Q*	c #E8E89C",
"R*	c #EEEDCD",
"S*	c #E9E8A4",
"T*	c #E5E599",
"U*	c #C5D27A",
"V*	c #BED277",
"W*	c #8AB947",
"X*	c #9CCB57",
"Y*	c #C5F480",
"Z*	c #D0FF8A",
"`*	c #B0E068",
" =	c #B8E86E",
".=	c #C7F87B",
"+=	c #BDED75",
"@=	c #B4D46F",
"#=	c #C4D479",
"$=	c #C4D478",
"%=	c #C3D378",
"&=	c #C4D57A",
"*=	c #C5D57A",
"==	c #C4D379",
"-=	c #C4D47A",
";=	c #C4D37A",
">=	c #C4D47B",
",=	c #BED47A",
"'=	c #BDEC78",
")=	c #BDED77",
"!=	c #ADDD65",
"~=	c #B5E669",
"{=	c #C1F275",
"]=	c #C1F179",
"^=	c #A9D961",
"    . . . . + @ #   $ % & * = - ; > , ' ) ! ~ { ~ ~ ] ^ { / ( _ : < [ [ } | _ _ _ _ _ _ _ 1 2 $ 3 4 ",
"1 5 5 . . 6 7 8 9 0 a 5 b c d e f g h i ! j { { ~ k l m n o p q : r s t u } _ _ _ _ _ _ _ 1   v w x ",
"b y y z z z 0 A B C D c _ D h E F G d F H I J J K L M N O P Q s R S T U q : _ _ _ _ _ _ _ 1 V W X x ",
"< b b y 5 z z Y C Z c D _ D `  .> ..+.@.#.$.%.%.%.%.%.&.*.=.S q -.T u [ } ;._ _ _ _ _ _ _ 1 >.+ ,.'.",
"} 1 1 5 y y   a D c } < ).!.~.{.].^./.(._.:.<.<.<.<.<.[.}.|.1.2.3.U 4.5.5.< _ _ _ _ _ _ _ 1 $ 6.z 7.",
")._ _ 1 1 5 y a * c < r 8.9.0.a.b.c.d.e.f.g.h.h.h.h.h.i.j.k.l.m.n.q r 5.;.r _ _ _ _ _ _ _ 1 o.p.@ q.",
"r.< _ 1 D D b 1 } _ s.s.t.8.u.v.w.x.y.z.A.B.C.C.B.B.D.h.h.h.E.F.G.H.;.;.} < _ _ _ _ _ _ _ 1 Z Z 2 y ",
"I.J.< } c c * c < r K.L.M.N.O.P.Q.R.S.T.U.V.W.W.W.W.X.Y.Z.h.h.`. +.+++@+#+$+%+_ _ _ _ _ _ 1 % $ o.y ",
"&+).*+} =+D -+;+>+,+'+)+!+~+{+]+^+/+(+_+:+<+[+W.W.W.}+|+1+2+h.3+4+5+6+7+8+9+0+a+a+a+b+_ _ 1 b y 5 a ",
"c+: !.& d+e+f+g+g+h+i+j+k+l+m+n+o+p+q+r+s+t+u+W.W.W.W.W.v+w+h.h.3+k.x+y+z+A+B+C+D+E+F+G+H+_ & 5 a Z ",
").: _ I+J+K+L+M+N+N+O+P+Q+R+S+T+U+V+}+W+X+Y+W.W.W.W.W.V+Z+w+h.h.h.`+B. @.@+@@@N+#@$@%@&@*@=@& D D -@",
"!.1 b ;@>@,@'@)@)@+@!@~@{@]@^@/@Z+(@}+V._@}+W.W.}+}+B.S+:@3+h.Z.<@[@}@|@1@+@2@+@+@3@4@5@6@7@& D 1 8@",
"} % 9@0@a@b@c@+@+@d@e@f@g@h@i@j@k@l@m@m@n@o@}+p@m@m@q@r@s@h.h.t@u@v@w@x@y@+@+@+@+@+@z@A@B@C@D@1 b =+",
"b Z E@F@G@H@+@+@I@f@J@K@L@M@N@O@P@Q@Q@D.v@R@R@S@h.h.h.h.<@T@Q@U@V@W@X@Y@f@Z@+@+@+@+@`@ #.#+#@#b b b ",
"b y ##$#%#&#+@+@*#=#-#;# # #>#,#'#V@V@)#!#!#!#!#!#!#!#!#!#~#V@{#]#^#/#(#_#:#+@+@2@<#[# #}#|#1#1 b 1 ",
"2 5 2#3#4#5#&#+@*#=#6#7# # #A@i+8#9#0#a#b#~#~#~#~#~#~#~#c#d#0#e# # #f#g#h#:#+@+@i#j#k#l#m#n#o#1 1 1 ",
"p#y y q#r#s#t#u#v#w#x#y#z#A#B#B#C#D#A@E#F#G#G#G#G#G#G#G#H#I#J#B#B#K#L#M#N#O#P#Q#R#S#T#U#V#W#1 a 2 V ",
". . D 1 X#Y#Z#`# $.$+$@$#$$$%$&$&$*$ #=$C#A@A@A@A@A@A@A@B#-$;$>$>$,$h#<#'$)$7#!$~${$]$^$/$: 1 $ $ y ",
"p#. c D ($s._$:$<$[$}$|$1$,$2$3$4$5$6$ # # # # # #!$A@A@i+7$8$=#_#9$0$j#a$b$c$d$e$f$g$} } } 8@5 4 a ",
"Y y D c } s.h$i$j$k$l$m$c$n$o$p$q$r$s$ # # # # # #t$u$v$v$w$)$x$N+y$z$A$B$C$D$E$F$} } _ ( 8@G$C 5 5 ",
"H$y D c } < J.J._ I$J$K$L$C+C+M$N$O$P$ #Q$R$S$ # #4@T$U$V$W$X$Y$Z$`$ %.%+%@%#%).: _ _ 1 $%%%&%*%2 5 ",
"y a c D _ < s.r.< } _ R =%-%;%>%,%'%)%K+!%~%{%]%]%]%^%/%!%]%!%(%_%:%<%[%).($r.8.: b D o.a >.# y a 5 ",
"a a D 1 1 1 : ;.} < _ !.5.;.h$8.}%|%1%2%3%3%3%4%4%4%3%3%3%5%6%7%=+% } !.).r.8.h$< -@% 4 + p.# c 8%1 ",
"y y b 1 D c _ ;.: r < ;.;.r.9%K.s.($0%a%b%b%b%b%b%b%c%d%e%b%f%b D D } _ s.r.8.} S g%h%0 @ i%G$8@* * ",
"y   a y 5   1 1 _ _ _ _ ($($L.L.($).j%k%b%l%m%b%b%b%b%n%o%b%p%q%1 1 } } 8.8.($_ r%s%t%z p#u%v%w%1 c ",
"# y a y 2 5 1 1 _ _ _ _ ($($x%s.s.y%z%b%A%B%C%b%b%b%D%E%F%b%G%H%D D < r r.s.h$I%r J%g%h%K%L%M%-@D D ",
"& D   5 y a 5 5 1 _ _ ($L.L.r.r.s.N%O%b%c%P%Q%b%b%b%R%S%T%U%c%V%$ * } _ ($($s.s.;.* J%W%X%Y%c : _ < ",
"c c y H$V 5 5 5 1 1 ($($L.L.J._ } Z%O%b%b%b%b%b%b%b%`% &.&b%c%+&p.Z 1 : 8.($@&I.: 9.#&$&%&& !.} ( ( ",
"D b *%B 9 0 z 5 1 1 ($($L.L.r.: ;.&&O%*&=&b%b%b%b%b%-&;&>&b%c%,&'&h%$%D _ ( s.($8.;.} ( r : _ < < < ",
"* D Y%)&K%@ z z 1 1 ($($L.L.< * !&~&{&]&^&/&b%b%b%b%b%c%b%b%c%(&_&A V * : r 8.8.s.J.).9.!.< } } ;.!.",
"* * y Y p.:&z z 1 1 ($($L.L.} D <&[&}&|&1&2&b%b%b%b%3&4&b%b%b%5&6&7&5 8%!.: ).s.9%J.($).($r.} _ _ ;.",
"& D   z 5 :&5 5 1 1 _ ($L.($: & 8&9&b%0&a&b%b%b%b%b%b&c&d&b%G%e&f&:&a 1 } } ($r.($I%h$s.($g&_ [ [ < ",
"% * 8%5 b   c b b * 8%: _ } h&5 i&9&b%e%j&b%b%b%b%b%b%b%b%k&l&e&f&1 1 _ _ _ _ _ _ _ _ _ _ _ : _ b b ",
"b D 1 & & D b 1 c c c D 1 &   2 <&9&b%b%b%b%b%b%b%b%b%b%b%m&b%n&o&_ _ _ _ _ _ _ _ _ _ _ _ _ } _ b 1 ",
"* 1 & b D D & * c -@p&=+1 b D q&r&s&b%b%b%b%b%b%b%b%b%b%b%b%b%t&u&v&_ _ _ _ _ _ _ _ _ _ _ _ _ _ 1 D ",
"c % % D D & 1 h&1 M%w&p&D c c x&y&b%b%z&A&e%b%B&C&b%b%b%b%b%b%b%D&E&_ _ _ _ _ _ _ _ _ _ _ _ } } } 1 ",
"& =+b c D =+b h&c J%g%8@D D } F&y&b%b%G&H&b%b%I&=&b%b%b%b%b%Q%c%D&J&_ _ _ _ _ _ _ _ _ _ _ _ ($_ } D ",
"b * K&* c c =+* K&1 % 1 D ( J.L&M&b%b%e%b%b%b%b%b%b%b%b%b%N&O&-&D&J&_ _ _ _ _ _ _ _ _ _ _ _ s.s.($: ",
"% h&* -@$%8%& 1 c * * c 1 r P&Q&R&b%b%b%b%b%b%b%b%b%b%b%N&S&T&U&V&W&_ _ _ _ _ _ _ _ _ _ _ _ ($($s._ ",
"J%b X&Y&Z&& * & $%% b & b : `&M& *b%Q%b%b%b%b%b%b%b%.*+*c%@*#*$*`%%*&*_ _ _ _ _ _ _ _ _ _ _ **t.s.r ",
"=*-*-@;*>*-*1 1 1 1 1 1 1 _ ,*'*d&b%)*!*G%~*b%b%b%b%{*b%b%b%]*^*b%n&/*< r ( #&| !.( ;.} R ;.L.L.($_ ",
"g%(*g%-@b b 1 1 1 1 1 1 1 _ ,*'*d&b%_*Q%:*<*[*b%b%b%b%b%b%b%b%b%b%n&/*_ : !.( } < r } _ r h$L.L.L.($",
"w%;*$&K&}*-@1 1 1 1 1 1 1 |*1*[&d&b%`%t&2*t&t&t&t&t&t&t&t&t&t&b%b%n&/*r < : 9.( r !.} r _ ($L.L.L.($",
"X&J%3*=+D c 1 1 1 1 1 1 1 4*5*6*7*8*9*0*a*b*0*0*0*0*0*0*0*0*c*d*e&e*E&f*#&!.< -.g*!._ r : s.L.h*L.($",
"K&i** $%& h&D D D D D D D j*k*l*m*n*o*b%p*q*b%b%b%b%b%b%b%b%G%r*s*d&t*u*4.v*w*x*w*< < < !.).h*h*L.($",
"8%D D 8%c % D D D D D D D y*z*9&~*b%b%b%G%b%b%b%b%b%b%b%b%b%b%b%P% *A*B*C*4.s w*q } : _ _ s.h*h*h*($",
"b -@% K&* 8@D D D D D D D D*E*F*G*G*7*b%b%b%b%b%b%b%3&l&b%b%b%t&G*H*I*J*T p [ _ } } !._ R s.h*h*h*($",
"b c * 1 1 c D D D a a a a a 1 K*L*M*N*O*P*P*O*O*P*Q*R*S*P*P*P*T*U*V*: < C*W*g*;._ -@D 1 =+!.L.h*L.($",
"D D } } } _ X*Y*Z*`*7& =.=+=_ ($($_ @=#=#=$=%=&=*=#=%===-=;=>=,=($($_ _ _ _ 1 % & a a 2 Z 1 _ ($($_ ",
"1 1 _ _ } : i*'=)=!=6 ~={=]=($L.($_ _ 5 5 z 6.6.p#5 D c : ;.($($($($_ _ _ _ 8%* a y p#. ^=4 1 _ _ _ "};
