/* XPM */
static char * grass_xpm[] = {
"50 50 782 2",
"  	c #A6D563",
". 	c #A6D562",
"+ 	c #A5D55F",
"@ 	c #A2D15F",
"# 	c #A6D561",
"$ 	c #ACDC67",
"% 	c #A5D562",
"& 	c #A1D15F",
"* 	c #A5D662",
"= 	c #A4D35D",
"- 	c #A4D361",
"; 	c #A7D764",
"> 	c #ABDA66",
", 	c #A3D25F",
"' 	c #A4D360",
") 	c #A6D564",
"! 	c #A5D560",
"~ 	c #A2D25F",
"{ 	c #AAD966",
"] 	c #A8D764",
"^ 	c #A1D05F",
"/ 	c #A5D45E",
"( 	c #A2D15E",
"_ 	c #ACDB67",
": 	c #A5D462",
"< 	c #A3D260",
"[ 	c #A4D45F",
"} 	c #A8D864",
"| 	c #A9D864",
"1 	c #A2D161",
"2 	c #A5D55E",
"3 	c #A2D15D",
"4 	c #ABDB67",
"5 	c #A6D662",
"6 	c #A1D05E",
"7 	c #A4D45E",
"8 	c #A3D35F",
"9 	c #ADDD68",
"0 	c #A6D55F",
"a 	c #A7D762",
"b 	c #A5D561",
"c 	c #A6D764",
"d 	c #A7D761",
"e 	c #A5D45F",
"f 	c #ABDB64",
"g 	c #A8D763",
"h 	c #A5D460",
"i 	c #A7D663",
"j 	c #A4D35F",
"k 	c #A7D662",
"l 	c #A9D962",
"m 	c #AADA65",
"n 	c #A5D463",
"o 	c #ADDC67",
"p 	c #A5D461",
"q 	c #ACDC66",
"r 	c #A6D661",
"s 	c #A8D765",
"t 	c #AAD965",
"u 	c #A5D660",
"v 	c #ACDB66",
"w 	c #A6D660",
"x 	c #A4D561",
"y 	c #A9D865",
"z 	c #A2D05E",
"A 	c #A7D664",
"B 	c #A9D863",
"C 	c #A3D261",
"D 	c #A5D360",
"E 	c #A4D460",
"F 	c #ACDD67",
"G 	c #A9DB65",
"H 	c #A8D866",
"I 	c #ADDC68",
"J 	c #ABDA67",
"K 	c #A5D661",
"L 	c #ACDD66",
"M 	c #A5D25F",
"N 	c #AADA66",
"O 	c #A8D865",
"P 	c #A9D965",
"Q 	c #A8D965",
"R 	c #ACDD68",
"S 	c #A5D564",
"T 	c #A4D55F",
"U 	c #A2D05D",
"V 	c #A9D764",
"W 	c #AADB66",
"X 	c #A2D260",
"Y 	c #ABDC67",
"Z 	c #A6D763",
"` 	c #A1D05C",
" .	c #A4D461",
"..	c #AAD964",
"+.	c #A1D15D",
"@.	c #A4D65F",
"#.	c #A8D562",
"$.	c #A4D35E",
"%.	c #A6D664",
"&.	c #A4D560",
"*.	c #A8D663",
"=.	c #A7D561",
"-.	c #A1CF5F",
";.	c #9CCA5A",
">.	c #9FCD5D",
",.	c #9FCE5F",
"'.	c #A0CD5F",
").	c #9ECD5C",
"!.	c #9FCE5E",
"~.	c #A5D663",
"{.	c #A6D761",
"].	c #A3D35C",
"^.	c #A8D863",
"/.	c #A3D360",
"(.	c #A9DA65",
"_.	c #ADDD65",
":.	c #A9D964",
"<.	c #A9D866",
"[.	c #A3D25E",
"}.	c #A7D864",
"|.	c #ADDD67",
"1.	c #6F8E41",
"2.	c #15060C",
"3.	c #18090E",
"4.	c #15060B",
"5.	c #16070D",
"6.	c #ABDB65",
"7.	c #A7D665",
"8.	c #A1CF5D",
"9.	c #A3D15F",
"0.	c #A7D863",
"a.	c #88AE4F",
"b.	c #5C8E3C",
"c.	c #47922E",
"d.	c #418931",
"e.	c #30732D",
"f.	c #6A893D",
"g.	c #6E8D3E",
"h.	c #9ECA5C",
"i.	c #A3D35E",
"j.	c #A8D762",
"k.	c #A9D963",
"l.	c #69883D",
"m.	c #499333",
"n.	c #54B834",
"o.	c #54B734",
"p.	c #4CAD35",
"q.	c #369634",
"r.	c #369535",
"s.	c #13190F",
"t.	c #171410",
"u.	c #90B953",
"v.	c #A7D563",
"w.	c #A1D05D",
"x.	c #ADDC66",
"y.	c #ABDB66",
"z.	c #4E642C",
"A.	c #43922A",
"B.	c #55B835",
"C.	c #4AAB33",
"D.	c #256335",
"E.	c #266237",
"F.	c #162C1A",
"G.	c #89AF4F",
"H.	c #A2D160",
"I.	c #ABDB63",
"J.	c #719341",
"K.	c #519034",
"L.	c #4FAA33",
"M.	c #4DB034",
"N.	c #3F9F34",
"O.	c #256236",
"P.	c #235130",
"Q.	c #5B7A39",
"R.	c #93BD57",
"S.	c #ACDC65",
"T.	c #A6D560",
"U.	c #AADA64",
"V.	c #9ECB5D",
"W.	c #33431F",
"X.	c #4DA72F",
"Y.	c #54B833",
"Z.	c #48AA35",
"`.	c #369633",
" +	c #256334",
".+	c #1F3B24",
"++	c #81A54D",
"@+	c #A1D15C",
"#+	c #A4D363",
"$+	c #A3D461",
"%+	c #A4D562",
"&+	c #57B13B",
"*+	c #54B835",
"=+	c #1D3F23",
"-+	c #7A9D46",
";+	c #56B23B",
">+	c #4BAD33",
",+	c #3F9E35",
"'+	c #349333",
")+	c #2D7A35",
"!+	c #246335",
"~+	c #1F472A",
"{+	c #526B33",
"]+	c #739343",
"^+	c #6F8E40",
"/+	c #7C9F49",
"(+	c #A3D361",
"_+	c #A9D966",
":+	c #A8D961",
"<+	c #A8DA62",
"[+	c #A6D663",
"}+	c #AAD963",
"|+	c #9CC95A",
"1+	c #9FCC5B",
"2+	c #1B2113",
"3+	c #56B23A",
"4+	c #53B735",
"5+	c #43A433",
"6+	c #379535",
"7+	c #389436",
"8+	c #368E35",
"9+	c #266236",
"0+	c #256037",
"a+	c #256038",
"b+	c #204C2F",
"c+	c #1D3220",
"d+	c #1F2915",
"e+	c #1F2916",
"f+	c #50682E",
"g+	c #9ECB5C",
"h+	c #9FCD60",
"i+	c #A7D861",
"j+	c #A2D25D",
"k+	c #A8D964",
"l+	c #A5D563",
"m+	c #A7D960",
"n+	c #98C45A",
"o+	c #16080C",
"p+	c #13070A",
"q+	c #399535",
"r+	c #53B635",
"s+	c #55B834",
"t+	c #45A535",
"u+	c #338935",
"v+	c #256237",
"w+	c #256235",
"x+	c #1D462B",
"y+	c #1D3A29",
"z+	c #408A31",
"A+	c #50A534",
"B+	c #14070B",
"C+	c #202310",
"D+	c #A3D35D",
"E+	c #ACDD69",
"F+	c #91BB53",
"G+	c #6F8E3F",
"H+	c #66883E",
"I+	c #307530",
"J+	c #2E752F",
"K+	c #379635",
"L+	c #3A812D",
"M+	c #3B812D",
"N+	c #439D34",
"O+	c #3C9C34",
"P+	c #328C33",
"Q+	c #2B7435",
"R+	c #204E2E",
"S+	c #204D30",
"T+	c #448937",
"U+	c #489535",
"V+	c #489534",
"W+	c #4EA835",
"X+	c #50AD35",
"Y+	c #2F752F",
"Z+	c #347432",
"`+	c #709141",
" @	c #A0CD5D",
".@	c #80A54A",
"+@	c #181D0D",
"@@	c #23471D",
"#@	c #369534",
"$@	c #1C4927",
"%@	c #1C4126",
"&@	c #338235",
"*@	c #349135",
"=@	c #359334",
"-@	c #2E8333",
";@	c #236036",
">@	c #255F37",
",@	c #1C3C28",
"'@	c #1C3A29",
")@	c #50A735",
"!@	c #53B834",
"~@	c #53B835",
"{@	c #53B734",
"]@	c #4FB136",
"^@	c #3A9338",
"/@	c #14170D",
"(@	c #A1CE5F",
"_@	c #A5D464",
":@	c #A3D462",
"<@	c #A7D763",
"[@	c #739342",
"}@	c #15070B",
"|@	c #417730",
"1@	c #56B835",
"2@	c #50B134",
"3@	c #359634",
"4@	c #379534",
"5@	c #389535",
"6@	c #225928",
"7@	c #1D3B29",
"8@	c #1D3C29",
"9@	c #276E2C",
"0@	c #2E8432",
"a@	c #245E34",
"b@	c #1D3B28",
"c@	c #1C3A28",
"d@	c #1C3B29",
"e@	c #1C3A2A",
"f@	c #50A734",
"g@	c #44A532",
"h@	c #379436",
"i@	c #12080A",
"j@	c #9AC65B",
"k@	c #82A74C",
"l@	c #719143",
"m@	c #5B8D39",
"n@	c #479030",
"o@	c #4FA035",
"p@	c #4FB132",
"q@	c #2E8034",
"r@	c #245E31",
"s@	c #1F462D",
"t@	c #1E3B29",
"u@	c #215429",
"v@	c #25612D",
"w@	c #204E2F",
"x@	c #1F4B2E",
"y@	c #1B3C26",
"z@	c #479536",
"A@	c #469536",
"B@	c #479635",
"C@	c #3E8531",
"D@	c #409830",
"E@	c #2F752D",
"F@	c #68873E",
"G@	c #9DC95B",
"H@	c #A4D260",
"I@	c #5C7835",
"J@	c #1A2310",
"K@	c #468D2F",
"L@	c #4EB035",
"M@	c #296E37",
"N@	c #214D2E",
"O@	c #1E3C28",
"P@	c #1C4624",
"Q@	c #2D672A",
"R@	c #2E7C30",
"S@	c #379437",
"T@	c #223A1E",
"U@	c #8EB951",
"V@	c #51682E",
"W@	c #4D9D33",
"X@	c #4FB135",
"Y@	c #204D2E",
"Z@	c #2D5731",
"`@	c #54B933",
" #	c #3D9D36",
".#	c #27642D",
"+#	c #2F7B31",
"@#	c #236233",
"##	c #328F34",
"$#	c #20461A",
"%#	c #90BA54",
"&#	c #ABDC64",
"*#	c #A5D260",
"=#	c #50662D",
"-#	c #4C9D32",
";#	c #4EB132",
">#	c #42A134",
",#	c #235B32",
"'#	c #1E472D",
")#	c #2B562C",
"!#	c #499A36",
"~#	c #44A432",
"{#	c #399935",
"]#	c #328433",
"^#	c #2B712F",
"/#	c #296B2D",
"(#	c #2C752D",
"_#	c #246234",
":#	c #2A7735",
"<#	c #1C3819",
"[#	c #8FB754",
"}#	c #A3D45F",
"|#	c #A8D662",
"1#	c #A4D261",
"2#	c #4F672E",
"3#	c #4D9E33",
"4#	c #49AA34",
"5#	c #369435",
"6#	c #1E4E2E",
"7#	c #1C3C29",
"8#	c #1E3A29",
"9#	c #2E662A",
"0#	c #369732",
"a#	c #2A6C2D",
"b#	c #1E3F28",
"c#	c #1D3D29",
"d#	c #235B28",
"e#	c #369436",
"f#	c #256234",
"g#	c #246236",
"h#	c #192C1B",
"i#	c #8DB654",
"j#	c #A4D45D",
"k#	c #A3D25D",
"l#	c #4A5D29",
"m#	c #4DA633",
"n#	c #4BAB36",
"o#	c #369533",
"p#	c #369536",
"q#	c #1F4E2E",
"r#	c #2E652A",
"s#	c #2B712E",
"t#	c #29662E",
"u#	c #328E32",
"v#	c #8FB854",
"w#	c #A4D362",
"x#	c #485A29",
"y#	c #4CA730",
"z#	c #4BAC35",
"A#	c #339134",
"B#	c #2B7B35",
"C#	c #2C7B35",
"D#	c #439337",
"E#	c #489C38",
"F#	c #479735",
"G#	c #479535",
"H#	c #428D34",
"I#	c #3A8933",
"J#	c #44A433",
"K#	c #338833",
"L#	c #307A33",
"M#	c #338433",
"N#	c #328E31",
"O#	c #256136",
"P#	c #1A2C1B",
"Q#	c #8BB450",
"R#	c #A1CF60",
"S#	c #445826",
"T#	c #49AA37",
"U#	c #328A34",
"V#	c #246336",
"W#	c #266834",
"X#	c #4DAB31",
"Y#	c #4BAE35",
"Z#	c #3D9D34",
"`#	c #53B636",
" $	c #53B637",
".$	c #246635",
"+$	c #256035",
"@$	c #266035",
"#$	c #1A301B",
"$$	c #8AB153",
"%$	c #170E0C",
"&$	c #4FAA31",
"*$	c #45A632",
"=$	c #338C37",
"-$	c #55B437",
";$	c #4AAC32",
">$	c #369532",
",$	c #359533",
"'$	c #1A3D27",
")$	c #1B3C28",
"!$	c #328934",
"~$	c #224D1C",
"{$	c #83A94D",
"]$	c #4DAA30",
"^$	c #4BAD34",
"/$	c #3C9C33",
"($	c #246235",
"_$	c #204D2C",
":$	c #479C37",
"<$	c #54B636",
"[$	c #45A333",
"}$	c #3F9E34",
"|$	c #286C2D",
"1$	c #2E8036",
"2$	c #2A7A35",
"3$	c #297A34",
"4$	c #328C34",
"5$	c #308933",
"6$	c #2D7F36",
"7$	c #276C2E",
"8$	c #489336",
"9$	c #489434",
"0$	c #399534",
"a$	c #327D2F",
"b$	c #5C8439",
"c$	c #94BE57",
"d$	c #180F0D",
"e$	c #4DA832",
"f$	c #55B438",
"g$	c #45A038",
"h$	c #338C38",
"i$	c #265F37",
"j$	c #1C3A27",
"k$	c #55B934",
"l$	c #54B735",
"m$	c #44A533",
"n$	c #3A9339",
"o$	c #1A4025",
"p$	c #399139",
"q$	c #2B6D39",
"r$	c #318237",
"s$	c #2F7E36",
"t$	c #2A6C38",
"u$	c #399038",
"v$	c #194225",
"w$	c #55B738",
"x$	c #276025",
"y$	c #799C46",
"z$	c #170F0C",
"A$	c #338930",
"B$	c #22572A",
"C$	c #1A3C28",
"D$	c #2C7730",
"E$	c #235C32",
"F$	c #1B3B2A",
"G$	c #56B934",
"H$	c #44A435",
"I$	c #369632",
"J$	c #339133",
"K$	c #246334",
"L$	c #1A3D26",
"M$	c #225C33",
"N$	c #235C33",
"O$	c #1C4025",
"P$	c #3B9A34",
"Q$	c #297334",
"R$	c #246136",
"S$	c #1C4123",
"T$	c #6D8D3F",
"U$	c #ACDC68",
"V$	c #26632A",
"W$	c #2E7532",
"X$	c #2E7832",
"Y$	c #265A2E",
"Z$	c #24592C",
"`$	c #2E7F2E",
" %	c #328935",
".%	c #1F4A2D",
"+%	c #1F422A",
"@%	c #459432",
"#%	c #48A934",
"$%	c #3C9B34",
"%%	c #338E34",
"&%	c #2C7A34",
"*%	c #2B7835",
"=%	c #2F7933",
"-%	c #265833",
";%	c #235B34",
">%	c #225632",
",%	c #245E35",
"'%	c #1E4B2D",
")%	c #1C4027",
"!%	c #389833",
"~%	c #2A7336",
"{%	c #1C4223",
"]%	c #708F41",
"^%	c #ABDC65",
"/%	c #A2D262",
"(%	c #191E0C",
"_%	c #1B3D23",
":%	c #338B31",
"<%	c #379634",
"[%	c #296C2D",
"}%	c #1C3F27",
"|%	c #286B2C",
"1%	c #348438",
"2%	c #1E3C29",
"3%	c #214B27",
"4%	c #3E9E36",
"5%	c #338738",
"6%	c #359635",
"7%	c #295431",
"8%	c #215531",
"9%	c #266136",
"0%	c #245433",
"a%	c #214B30",
"b%	c #265A34",
"c%	c #1C4425",
"d%	c #359632",
"e%	c #379538",
"f%	c #379537",
"g%	c #2A7337",
"h%	c #6E8E3E",
"i%	c #14070A",
"j%	c #58B73A",
"k%	c #40A034",
"l%	c #1C3B28",
"m%	c #336231",
"n%	c #399833",
"o%	c #2F8333",
"p%	c #246237",
"q%	c #369635",
"r%	c #295432",
"s%	c #285531",
"t%	c #286B37",
"u%	c #246137",
"v%	c #6D8C3E",
"w%	c #15070A",
"x%	c #56B639",
"y%	c #48A933",
"z%	c #3A9A34",
"A%	c #317F36",
"B%	c #204B2E",
"C%	c #204E2A",
"D%	c #3B8635",
"E%	c #45A533",
"F%	c #379734",
"G%	c #2F7137",
"H%	c #49AB36",
"I%	c #4A9736",
"J%	c #499233",
"K%	c #499234",
"L%	c #33692D",
"M%	c #275F2E",
"N%	c #307832",
"O%	c #337E35",
"P%	c #2B7B34",
"Q%	c #2A7B34",
"R%	c #276637",
"S%	c #225731",
"T%	c #1A341F",
"U%	c #739243",
"V%	c #A4D25F",
"W%	c #293116",
"X%	c #5BB340",
"Y%	c #3E9D32",
"Z%	c #308438",
"`%	c #205631",
" &	c #215B29",
".&	c #3D9D35",
"+&	c #53B736",
"@&	c #54B736",
"#&	c #379536",
"$&	c #308235",
"%&	c #337935",
"&&	c #3A812B",
"*&	c #2B732F",
"=&	c #266036",
"-&	c #1F4D2F",
";&	c #18281B",
">&	c #6E8D40",
",&	c #ABDA64",
"'&	c #17100B",
")&	c #40A033",
"!&	c #256137",
"~&	c #277234",
"{&	c #308136",
"]&	c #3E9C36",
"^&	c #1F402A",
"/&	c #1D3A27",
"(&	c #19281B",
"_&	c #6E8D3F",
":&	c #81A64B",
"<&	c #49802B",
"[&	c #439E32",
"}&	c #348933",
"|&	c #2C7B34",
"1&	c #2A7236",
"2&	c #2A7038",
"3&	c #318835",
"4&	c #2D8233",
"5&	c #297136",
"6&	c #317536",
"7&	c #4AA238",
"8&	c #45A534",
"9&	c #348E34",
"0&	c #2A6B2E",
"a&	c #214E2E",
"b&	c #204E2D",
"c&	c #1E3D2A",
"d&	c #1B2F23",
"e&	c #66833D",
"f&	c #91BB54",
"g&	c #388536",
"h&	c #2F7238",
"i&	c #296039",
"j&	c #276037",
"k&	c #276136",
"l&	c #307839",
"m&	c #379336",
"n&	c #379337",
"o&	c #286F35",
"p&	c #368234",
"q&	c #54B737",
"r&	c #54B738",
"s&	c #358637",
"t&	c #1F3A29",
"u&	c #263520",
"v&	c #7FA449",
"w&	c #51672E",
"x&	c #17080D",
"y&	c #1B2B1F",
"z&	c #245B33",
"A&	c #368235",
"B&	c #50B233",
"C&	c #359633",
"D&	c #1B3425",
"E&	c #16070C",
"F&	c #14060B",
"G&	c #14060A",
"H&	c #85AA4F",
"I&	c #A6D762",
"J&	c #ACDD65",
"K&	c #88AF4F",
"L&	c #82A84A",
"M&	c #85AB4F",
"N&	c #5A7636",
"O&	c #18241A",
"P&	c #19251B",
"Q&	c #18251B",
"R&	c #1C3921",
"S&	c #1C3F22",
"T&	c #1B3F22",
"U&	c #275524",
"V&	c #367624",
"W&	c #276122",
"X&	c #266021",
"Y&	c #266022",
"Z&	c #1E431E",
"`&	c #17251A",
" *	c #3E5328",
".*	c #87AD51",
"+*	c #81A84B",
"@*	c #81A64C",
"#*	c #83A94C",
"$*	c #98C459",
"%*	c #A4D462",
"&*	c #749641",
"**	c #282D15",
"=*	c #282E16",
"-*	c #282F15",
";*	c #292F16",
">*	c #292E16",
",*	c #272D14",
"'*	c #282E14",
")*	c #292F15",
"!*	c #282E15",
"~*	c #293016",
"{*	c #526A2E",
"]*	c #A3D460",
"^*	c #AADB65",
"/*	c #A5D45D",
"(*	c #A2D15C",
"_*	c #A8D761",
":*	c #A0D05B",
"<*	c #A7D660",
"[*	c #ADDD66",
"}*	c #A2D25E",
"|*	c #A7D766",
"1*	c #A8D862",
"2*	c #ACDB65",
"3*	c #A7D661",
"4*	c #A5D362",
"5*	c #ABDA65",
"6*	c #ABDB68",
"7*	c #A6D463",
"8*	c #A7D765",
"9*	c #A6D862",
"0*	c #A3D463",
"a*	c #A5D760",
"b*	c #A7D564",
"c*	c #A6D65F",
"d*	c #A9DA64",
"e*	c #A6D760",
"f*	c #A6D565",
"g*	c #A3D161",
"  . + @ # $ % & * . = - ; > , ' ) ! ~ # { ] ^   ) / ( . _ : <   # , [ } | 1 . ) 2 3 . 4 5 6 . ) 7 8 ",
"9 0 . ' # a b c 4 +   [ . d e f g b # h i . ! $ h . j   k + l m h n !   k h o 5 p h : a + + q e   [ ",
"- : $ . j < ! r < s t # @ ! u p : v i # ( ! w ' ) v # < - x b j y | # z p r h p $ # p 3 + ) , g > # ",
"- [ A p #   B t C + . D   E F % - ! . h . # v - h 5 h   : G H j h # h . p I j ' r # p . a J C 2 # h ",
"K L , M N O   + P Q 6   R S   T L h U V N   # k W X : Y Z   n W a ` . I     + R  .< P Q   . | ..+.  ",
"@.K k #.b . @ $.%.b O   &.S 6 x * r *.=.b -.;.>.,.^ '.).!.( ! ~.% g . ! : @ + %.{.A b b < ].  . ^.  ",
"@ /.(.r h _.% % ` h m % :.<.e j [.}.} [ |.1.2.2.3.4.5.4.4.' # +.# t e 6.g h C [.y 7.7 |.. h 8.h m   ",
"  } {.E (   6 e   t ! 9.: p < e g 0.x 6 a.b.c.c.d.e.e.e.e.f.g.h.| h @ . ' i.# g j.p ~ ) +.p . t e < ",
"! k.#     h ) # p l .   h . : h ^.g -.'.l.m.n.o.p.q.q.q.r.s.t.u.v.# ) e   p h B r   . e ) : ! :.h . ",
"    # w.  x.# [.  ) ' - 7.y.C p   # z.4.A.B.n.C.q.q.q.q.q.D.E.F.G., ' B ..< # . n 6 ) v   H.. . j ( ",
"o 0 . h # # h Z 4 +   e   . h I.s J.K.c.L.n.M.N.q.q.q.q.q.D.O.P.Q.R.! . ! ! o 5 p # #   ! p S.p   ! ",
"- p 9   j [.T.%.~ y U.. @ : k - V.W.X.Y.n.n.Z.q.q.q.q.q.`. +O.O..+++< @+# i - #+x.# p @ # i X A y.  ",
"$+%+# b . # g :.h p . e . h _ K 5.&+*+n.n.n.Z.q.q.q.q.q.`.D.O.O.O.=+-+. e v : h 5 # b # k U.&.x   e ",
"u Y , ' t | p : ..s w.) 9 5 : T 5.;+n.n.n.>+,+q.q.q.'+)+)+!+O.O.O.~+{+]+^+/++ o (+< _+y   : :+:.6 ) ",
"+ . <+[+b r , [   p }+  &.b |+1+2+3+n.n.4+5+q.q.6+7+8+9+O.O.O.0+a+b+c+d+e+f+g+h+i+s + x (+j   ! t   ",
"j+j k+l+$.q   : w.h | ' m+n+o+p+q+r+n.s+t+`.q.q.u+O.O.O.O.v+w+x+y+y+z+B.B.A+B+C+} . D+E+  ! 6 + <.: ",
"# t k : -   6 h . > h F+G+H+I+J+K+L+M+N+O+q.q.P+Q+O.O.O.v+R+S+T+U+V+W+n.n.X+Y+Z+`++ <   w.h   J h ' ",
"h g h .   :   E h :  @.@+@@@q.q.#@$@%@&@*@*@=@-@O.O.O.;@>@,@'@)@!@~@{@{@{@]@q.^@/@(@_@- # [.+ g h . ",
"g # T.6 # o   :@<@[@}@|@1@2@3@q.q.4@5@6@7@8@9@0@O.O.a@b@c@d@e@f@Y.g@q.q.q.q.q.3@h@i@j@$ i - g   e , ",
"J T.. h #   2 k@l@m@n@o@s+p@q.q.q.q.q@r@s@t@u@v@w@w@x@y@z@A@B@C@D@O+q.q.q.q.q.q.#@E@F@G@e + U.[   ! ",
"< p o . j , H@I@J@K@n.n.*+L@q.q.q.q.M@O.N@t@t@t@t@t@O@P@B.n.n.Q@R@r.q.q.q.q.q.q.q.S@T@U@. i ( a > ! ",
"p b   # 5   V@W@Y.n.n.n.X@`.q.q.q.q.M@O.Y@7@t@t@t@t@Z@`@n.s+ ##@.#+#4@4@4@4@q.q.q.@###$#%#y # ! # . ",
"K &#[.*#N ] =#-#n.n.n.;#>#q.q.q.q.q.M@O.,#'#t@t@t@)#!#`@n.~#{#q.]#^#/#/#/#(#`.q.q._#:#<#[#p | :.U . ",
"}#l+N |#E 1#2#3#n.n.*+4#q.q.q.q.5#5#M@O.O.6#7#t@8#9#`@n.n.0#q.q.q.a#b#t@c#d#q.e#e#f#g#h#i#j#p . > . ",
"< - Z ! k#l#m#n.n.n.n#o#q.q.q.p#D.D.g#O.O.q#7@t@8#r#n.n.n.0#q.q.q.q.s#t@t#3@u#w+w+w+O.h#v#h @ h a w#",
". N {.b : x#y#n.n.n.z#q.q.A#B#C#O.O.D#E#E#F#G#G#H#I#n.n.J#`.q.q.q.q.K#L#M#q.N#O#O.O.g#P#Q#p . $ e - ",
"e a h . R#S#y#n.n.4+T#q.r.U#V#O.O.W#X#n.n.n.n.n.Y#Z#`# $`.q.q.q.q.q.q.q.q.q.u#.$.$+$@$#$$$^ + k h . ",
"t # . w.%$&$s+n.Y.*$q.q.=$_#O.O.9+-$s+n.n.n.n.;$`.q.>$>$`.q.q.q.q.q.q.q.q.q.`.,$5#'$)$!$~${$... h ( ",
"{ # % p %$]$n.n.^$/$q.q.=$($O#_$:$<$n.n.n.>+[$}$q.q.q.6+|$h@1$2$3$4$5$2$2$2$6$r.7$8$9$0$a$b$c$h   ! ",
"@ E 9 . d$e$-$f$g$h@q.q.h$($i$j$k$n.n.n.l$m$q.q.q.q.q.n$o$p$q$O.O.r$s$O.O.O.t$u$v$w$~@Z#h@x$y$n v b ",
"x x p : z$A$B$C$)$D$q.q.h$E$F$c@G$Y.n.n.H$I$q.q.q.q.J$K$4@L$M$O.O.O.O.O.O.O.N$O$B.n.P$`.Q$R$S$T$- # ",
"u U$D+: %$V$W$X$Y$Z$`$`. %.%+%@%s+Y.#%m$$%q.q.q.%%&%*%w+&%=%-%R+,#O.O.;%>%,%'%)%Y.m$!%#@~%O.{%]%, ) ",
"$.: ^%/%(%_%:%<%[%}%|%S@1%2%3%`@n.l$4%q.q.q.q.r.5%O.O.O.w+6%7%7@8%9%9%0%a%b%t@c%4+d%e%f%g%O.{%h%$ . ",
"j 7 b i%j%B.k$k%q.#@L#l%l%m%B.n.Y.n%q.q.q.q.q.o%p%O.O.O.w+q%r%t@b@)$)$7@d@l%s%#@q.q.t%w+v+u%{%v%i ' ",
"# _ p w%x%Y.y%z%q.q.A%B%C%D%n.s+E%F%q.q.q.q.q.o%O.G%E#E#:$H%I%J%K%L%M%N%N%N%O%6+P%Q%R%O.O.S%T%U%h : ",
"p . V%W%X%s+Y%o#q.q.Z%`% &.&+&@&`.q.q.q.q.q.#&$&O.%&n.n.n.n.@&@&@&&&*&q.q.q.q.#&O.O.=&=&=&-&;&>&h . ",
",&w k w.'&]$s+)&q.q.Z%!&~&`.o#o#q.q.q.q.q.q.{&g#O.%&n.n.n.s+]&o#o##@#@q.q.q.q.#&O.O.^&/&/&d@(&_&h 3 ",
"s . ! : :&<&[&}&|&|&1&2&3&q.q.q.q.q.q.4&|&|&5&O.6&7&n.*+E%8&{#q.q.q.q.q.q.9&/#0&a&b&c&t@t@d&e&f&r b ",
"@ - 9 : h z.g&h&i&j&k&l&m&S@S@S@S@S@n&o&u%u%O.O.p&Y.q&r&q.q.q.q.q.h@S@S@S@s&7@t&t&t&t&t&t&u&v&a v e ",
"p b : j g ] w&x&4.y&c@b@b@b@b@b@b@b@b@z&O.O.O.O.A&B&C&I$`.`.`.`.`./#,@b@b@b@D&E&4.F&F&G&4.H&# # <   ",
"I&J&[ n g   K&L&M&N&O&O&O&O&P&O&O&Q&O&R&S&S&T&T&U&V&W&X&X&X&Y&X&X&Z&`&O&O&O& *.*+*@*#*#*:&$*P l ' ) ",
"j+%*S.<@. > : ! ~ &***=*-*;*>*,*'*;*)*!*;*!*'*,*;*~*>*!*;*!*!*,*!*~*!*)*;*!*{*]*^*s b y.  /*( . 9 . ",
": l+~. .(*_*% b : b r ( # A h . [     :*^.# ! n p . - , s . # h h # ` j.# ! : %*~.  ` s . p n p . , ",
": 4 {..   n ^ e . o b   % : H.h ..t h   ) @ ' . o h   # # 6 h <*$ h   . w#, ! N ^.% . # 6 p T.[*e . ",
"p # h .   #   ( % r p   x 5 < ' # h .   .   w.:   e     r - < % p #   0 . ( p ) +   . ! ) @ % . h . ",
"v 0 # w.. o # <@m ! w#}*|*y.  U.1*h 3 p > ]   S.p . w.) o   B :.h , ' y ... 2*k ! w.  $ i . 2*p p 3 ",
"A . i . j j [ %+%.r 3*. < h p A i k   # ( h + A . d . - - $.. A . [+. }*h h A   3*# p < + 4*A # i . ",
"H.$.$ % p h | _++.<@m : n   $ - , 5*i h : k 6*& b _ p 7*. t ^.+.^.| e n # $ , /.U$p : : g m 6 5 J  .",
"h s ' - ..g # # 5 Z @ . q + k T 8*p [.] k.h   ! I&(+w#> w r + 9*5 U   S.h i h }.0*- y k.h r a*[+H.  ",
"k > [ ) w # @ n :.{.b   K b*^ . W p n % c*' ' a d*[   e*f*6   m % p   c*  ( . 6.b : r . g*- ^.] h   "};
