/* XPM */
static char * grass_xpm[] = {
"50 50 227 2",
"  	c #A6D563",
". 	c #A6D562",
"+ 	c #A5D55F",
"@ 	c #A2D15F",
"# 	c #A6D561",
"$ 	c #ACDC67",
"% 	c #A5D562",
"& 	c #A1D15F",
"* 	c #A5D662",
"= 	c #A4D35D",
"- 	c #A4D361",
"; 	c #A7D764",
"> 	c #ABDA66",
", 	c #A3D25F",
"' 	c #A4D360",
") 	c #A6D564",
"! 	c #A5D560",
"~ 	c #A2D25F",
"{ 	c #AAD966",
"] 	c #A8D764",
"^ 	c #A1D05F",
"/ 	c #A5D45E",
"( 	c #A2D15E",
"_ 	c #ACDB67",
": 	c #A5D462",
"< 	c #A3D260",
"[ 	c #A4D45F",
"} 	c #A8D864",
"| 	c #A9D864",
"1 	c #A2D161",
"2 	c #A5D55E",
"3 	c #A2D15D",
"4 	c #ABDB67",
"5 	c #A6D662",
"6 	c #A1D05E",
"7 	c #A4D45E",
"8 	c #A3D35F",
"9 	c #ADDD68",
"0 	c #A6D55F",
"a 	c #A7D762",
"b 	c #A5D561",
"c 	c #A6D764",
"d 	c #A7D761",
"e 	c #A5D45F",
"f 	c #ABDB64",
"g 	c #A8D763",
"h 	c #A5D460",
"i 	c #A7D663",
"j 	c #A4D35F",
"k 	c #A7D662",
"l 	c #A9D962",
"m 	c #AADA65",
"n 	c #A5D463",
"o 	c #ADDC67",
"p 	c #A5D461",
"q 	c #ACDC66",
"r 	c #A6D661",
"s 	c #A8D765",
"t 	c #AAD965",
"u 	c #A5D660",
"v 	c #ACDB66",
"w 	c #A6D660",
"x 	c #A4D561",
"y 	c #A9D865",
"z 	c #A2D05E",
"A 	c #A7D664",
"B 	c #A9D863",
"C 	c #A3D261",
"D 	c #A5D360",
"E 	c #A4D460",
"F 	c #ACDD67",
"G 	c #A9DB65",
"H 	c #A8D866",
"I 	c #ADDC68",
"J 	c #ABDA67",
"K 	c #A5D661",
"L 	c #ACDD66",
"M 	c #A5D25F",
"N 	c #AADA66",
"O 	c #A8D865",
"P 	c #A9D965",
"Q 	c #A8D965",
"R 	c #ACDD68",
"S 	c #A5D564",
"T 	c #A4D55F",
"U 	c #A2D05D",
"V 	c #A9D764",
"W 	c #AADB66",
"X 	c #A2D260",
"Y 	c #ABDC67",
"Z 	c #A6D763",
"` 	c #A1D05C",
" .	c #A4D461",
"..	c #AAD964",
"+.	c #A1D15D",
"@.	c #A4D65F",
"#.	c #A8D562",
"$.	c #A4D35E",
"%.	c #A6D664",
"&.	c #A4D560",
"*.	c #A8D663",
"=.	c #A7D561",
"-.	c #A2D25E",
";.	c #A5D663",
">.	c #A7D863",
",.	c #A6D761",
"'.	c #A3D35C",
").	c #A8D863",
"!.	c #A3D360",
"~.	c #A9DA65",
"{.	c #ADDD65",
"].	c #A9D964",
"^.	c #A9D866",
"/.	c #A3D25E",
"(.	c #A7D864",
"_.	c #ADDD67",
":.	c #ABDB65",
"<.	c #A7D665",
"[.	c #A1CF5D",
"}.	c #A3D15F",
"|.	c #A4D362",
"1.	c #A3D35E",
"2.	c #A8D762",
"3.	c #A9D963",
"4.	c #A6D560",
"5.	c #A1D05D",
"6.	c #ADDC66",
"7.	c #ABDB66",
"8.	c #ABDA65",
"9.	c #A2D25D",
"0.	c #A6D565",
"a.	c #A2D05F",
"b.	c #A2D160",
"c.	c #ABDB63",
"d.	c #ACDC65",
"e.	c #AADA64",
"f.	c #A2D261",
"g.	c #A1D15C",
"h.	c #A4D363",
"i.	c #A3D461",
"j.	c #A4D562",
"k.	c #ABDC65",
"l.	c #A7D763",
"m.	c #A3D361",
"n.	c #A9D966",
"o.	c #A8D961",
"p.	c #A8DA62",
"q.	c #A6D663",
"r.	c #AAD963",
"s.	c #A6D762",
"t.	c #A7D861",
"u.	c #A8D964",
"v.	c #A5D563",
"w.	c #A7D960",
"x.	c #A6D665",
"y.	c #AADB67",
"z.	c #A4D261",
"A.	c #A2D35F",
"B.	c #A3D35D",
"C.	c #ACDD69",
"D.	c #A3D462",
"E.	c #A2D361",
"F.	c #A3D363",
"G.	c #A4D45D",
"H.	c #AADB65",
"I.	c #A8D966",
"J.	c #A4D462",
"K.	c #ABDC64",
"L.	c #A5D260",
"M.	c #ABDD65",
"N.	c #A3D15E",
"O.	c #A9D763",
"P.	c #ABDD67",
"Q.	c #A3D45F",
"R.	c #A8D662",
"S.	c #A7D565",
"T.	c #A7D563",
"U.	c #A3D25D",
"V.	c #A2D15C",
"W.	c #A2D25C",
"X.	c #A7D462",
"Y.	c #A6D362",
"Z.	c #A7D666",
"`.	c #A7D660",
" +	c #A7D661",
".+	c #A3D160",
"++	c #ACDC68",
"@+	c #A7D865",
"#+	c #A8D962",
"$+	c #A4D262",
"%+	c #A6D861",
"&+	c #A5D363",
"*+	c #A6D461",
"=+	c #A2D35D",
"-+	c #ABDA64",
";+	c #A6D766",
">+	c #A9DA66",
",+	c #AADA63",
"'+	c #A5D65F",
")+	c #A4D55E",
"!+	c #ACDA67",
"~+	c #A8D862",
"{+	c #ACDD65",
"]+	c #A7D862",
"^+	c #A8D861",
"/+	c #A5D761",
"(+	c #ADDC69",
"_+	c #ABDC66",
":+	c #A3D460",
"<+	c #A5D45D",
"[+	c #A8D761",
"}+	c #A0D05B",
"|+	c #ADDD66",
"1+	c #A7D766",
"2+	c #ACDB65",
"3+	c #A5D362",
"4+	c #ABDB68",
"5+	c #A6D463",
"6+	c #A7D765",
"7+	c #A6D862",
"8+	c #A3D463",
"9+	c #A5D760",
"0+	c #A7D564",
"a+	c #A6D65F",
"b+	c #A9DA64",
"c+	c #A6D760",
"d+	c #A3D161",
"  . + @ # $ % & * . = - ; > , ' ) ! ~ # { ] ^   ) / ( . _ : <   # , [ } | 1 . ) 2 3 . 4 5 6 . ) 7 8 ",
"9 0 . ' # a b c 4 +   [ . d e f g b # h i . ! $ h . j   k + l m h n !   k h o 5 p h : a + + q e   [ ",
"- : $ . j < ! r < s t # @ ! u p : v i # ( ! w ' ) v # < - x b j y | # z p r h p $ # p 3 + ) , g > # ",
"- [ A p #   B t C + . D   E F % - ! . h . # v - h 5 h   : G H j h # h . p I j ' r # p . a J C 2 # h ",
"K L , M N O   + P Q 6   R S   T L h U V N   # k W X : Y Z   n W a ` . I     + R  .< P Q   . | ..+.  ",
"@.K k #.b . @ $.%.b O   &.S 6 x * r *.=.b - -.b ;.>.  &.* ( ! ;.% g . ! : @ + %.,.A b b < '.  . ).  ",
"@ !.~.r h {.% % ` h m % ].^.e j /.(.} [ _.  ! z h ..  r v p # +.# t e :.g h C /.y <.7 _.. h [.h m   ",
"  } ,.E (   6 e   t ! }.: p < e g >.x 6 . /.$.  ].e |.' . ^ h k | h @ . ' 1.# g 2.p ~ ) +.p . t e < ",
"! 3.#     h ) # p l .   h . : h ).g .   p : : b ].#   # . : b 4.| # ) e   p h B r   . e ) : ! ].h . ",
"    # 5.  6.# /.  ) ' - <.7.C p   # 5.. 8.] 9.  0.b a.  $ : ' . # , ' B ..< # . n 6 ) v   b.. . j ( ",
"o 0 . h # # h Z 4 +   e   . h c.s &.* h # h &.$ p 5 h .   [ | m h   ! . ! ! o 5 p # #   ! p d.p   ! ",
"- p 9   j /.4.%.~ y e.. @ : k - - Y c # 5.# 5 f.  6.# C ' r ) < t y . g.# i - h.6.# p @ # i X A 7.  ",
"i.j.# b . # g ].h p . e . h _ K &.:   p r ! > : h . e . e ..).&.:   b . e v : h 5 # b # k e.&.x   e ",
"u Y , ' t | p : ..s 5.) 9 5 : T L  .@ y N : . d J ( : _ i : E k.l.6   o . n + o m.< n.y   : o.].6 ) ",
"+ . p.q.b r , [   p r.  &.5 ( e . >.}   + ' 1.    ..# T K < + . s.Q . ! # /.h S t.s + x m.j   ! t   ",
"9.j u.v.$.q   : 5.h | ' w.} h ' /.s.x.1.o ) ! @ p ] h T y.b . 3 + O , > g + z.A.} . B.C.  ! 6 + ^.: ",
"# t k : -   6 h . > h /.# p -.h s | h /.  @ j . 8.! h ' # ` p i t h , # - , # | ).+ <   5.h   J h ' ",
"h g h .   :   E h ] h # h . h B.d k . . h   - ! ] p # # # h e ! a # ) +   - h ] p . ) - # /.+ g h . ",
"g # 4.6 # o   D.l.. $./.A 7.- k i 4.@ # 8.s E.(.  # 3 . o   p k # < [ | m F.(.  r 3 . $ i - g   e , ",
"J 4.. h #   2 q.N + # h . + e ..A b . h   h + N h . E . # G.g | e   ! . p T H.  ! # p # e + e.[   ! ",
"< p o . j , 2.a @ y m h @ % I.J.- v A h ` # ).@ . o h < - l.A 3 3.y h 3 # | j |.o # p 9.i i ( a > ! ",
"p b   # 5   a ).n e # # i E m % p b . # k p e.. p r # i : | <.# + : # k h { 4.h . # . q.r y # ! # . ",
"K K./.L.N ] - h t ).@   6.  < &.M.h N.O.m - p i W & : 7.i C n W 5 z 5 P.  - h I ' - ].| : p | ].U . ",
"Q.v.N R.E g - e : # J ) # S.' E b g y T.5 : j p K 7.  h <.' ! j.a e.  K i ' [ : 3.s p A |.G.p . > . ",
"< - Z ! U.f . . @ h ] 8 a O h  .$.  i V.f . ! < h k : [ m p # -.p A V...a e - !.A   W.:.. h @ h a |.",
". N ,.b :   6 e   v h - X.Y.< h B ].h -   b.j   v e n :   6 h k 8.! -   - /.# P ).p  .) 5.p . $ e - ",
"e a h .   h n , p k p   h . - 8 r # .   p   /.p i h   % # |.' ! r h ) e   , D A 7     [ ) < + k h . ",
"t # . 5.  _.# . } # - < Z.7.n ] ; # +.. 8.] p t . . 6 ) o ) i ] # , [ B e.p ..5 # 6 ) $ A : ... h ( ",
"{ # % p h h j . y e . h : p e 3.A h . h h h + n.p . h % : 7 `.y h   ! p h ! ].. b # p : 7 p ].h   ! ",
"@ E 9 . D , g s 6 O 8.: @ . t - , _ i h (  +{ ^   $ p - p ] ] @ P y + .+# { < |._.# p .+g } 6 ; v b ",
"x x p : l.i # g b &.- # | h B + x h h l.a ! y b x v.h ] ! ).! K  .- 5 | ! ].p &.j.p 2.2.# ] &.x - # ",
"u ++B.: P  +' : e.@+B.. t . }.! L [ , A | - p 2.W 9.. ..q.< % K.5 , . t : < ! ++Q.' } s - - #+]., ) ",
"$.: k.%.b 3.p ! $+5 d.  %+l.h 1.p t |   l . [ -   q . w >. .+ j ] > . 2.i e ' &+e.s + Q : ! C w $ . ",
"j 7 s. .3 t b % , e k -.,.l.h p $.*+i g.| . e - h q.[ =+Q p . ' h k 5.| k + |.' r . g.n.  h , E i ' ",
"# _ k .     5.h . I h h # p 9.h y t p n . @ j . I b 4.%   5.+ d _ h p 5 - , # 8.y ! :   5.h w o h : ",
"p . h .   p n X h # h # h r 8 8   h .   p   @ b . h   . . p 8 v.# p ) e   b. .. [ .   p . 3 : i h . ",
"-+w k 5.# I . ;+3.# j /.] v   3.g r 5.# 7.s S W # # ` . o ) g ).r , j y t v.>+r # ` # o A   ,+. h 3 ",
"s . ! : ' p + x l.p # h - p e g ) + . h , h '+l.p # h : p G.5 ] ! . p ' p )+>.. h # p ' e h ] h r b ",
"@ - 9 : h ' | 3.6 ] 8.h - ) J ' < q i h j k > @ b o h : : | ] 3 3.y h ' # !+, |._.# p j ~+3.6 a v e ",
"p b : j g ] . 5   u , # > h a h . |.- g g h a p b E p P . i p r p f.  e.p i h # - h g O b A # # <   ",
"s.{+[ n g   < + N ]+-   ^+) @ * M.h |.5 g - ' ).H.8   2.. @ v.Y /+i.  2.  @ w ++x : a s.- p P l ' ) ",
"9.J.d.l.. > : ! ~ '+(+  ~+^.. 8 E ..3.. J . h ( u F    +{ : p X l._+. y ] p 8 :+H.s b 7.  <+( . 9 . ",
": v.;. .V.[+% b : b r ( # A h . [     }+).# ! n p . - , s . # h h # ` 2.# ! : J.;.  ` s . p n p . , ",
": 4 ,..   n ^ e . o b   % : b.h ..t h   ) @ ' . o h   # # 6 h `.$ h   . |., ! N ).% . # 6 p 4.|+e . ",
"p # h .   #   ( % r p   x 5 < ' # h .   .   5.:   e     r - < % p #   0 . ( p ) +   . ! ) @ % . h . ",
"v 0 # 5.. o # l.m ! |.-.1+7.  e.~+h 3 p > ]   d.p . 5.) o   B ].h , ' y ... 2+k ! 5.  $ i . 2+p p 3 ",
"A . i . j j [ j.%.r  +. < h p A i k   # ( h + A . d . - - $.. A . q.. -.h h A    +# p < + 3+A # i . ",
"b.$.$ % p h | n.+.l.m : n   $ - , 8.i h : k 4+& b _ p 5+. t ).+.).| e n # $ , !.++p : : g m 6 5 J  .",
"h s ' - ..g # # 5 Z @ . q + k T 6+p /.] 3.h   ! s.m.|.> w r + 7+5 U   d.h i h (.8+- y 3.h r 9+q.b.  ",
"k > [ ) w # @ n ].,.b   K 0+^ . W p n % a+' ' a b+[   c+0.6   m % p   a+  ( . :.b : r . d+- ).] h   "};
