/* XPM */
static char * wall2_xpm[] = {
"50 50 474 2",
"  	c None",
". 	c #15060C",
"+ 	c #18090E",
"@ 	c #15060B",
"# 	c #16070D",
"$ 	c #47922E",
"% 	c #418931",
"& 	c #30732D",
"* 	c #499333",
"= 	c #54B834",
"- 	c #54B734",
"; 	c #4CAD35",
"> 	c #369634",
", 	c #369535",
"' 	c #13190F",
") 	c #171410",
"! 	c #43922A",
"~ 	c #55B835",
"{ 	c #4AAB33",
"] 	c #256335",
"^ 	c #266237",
"/ 	c #162C1A",
"( 	c #4FAA33",
"_ 	c #4DB034",
": 	c #3F9F34",
"< 	c #256236",
"[ 	c #235130",
"} 	c #4DA72F",
"| 	c #54B833",
"1 	c #48AA35",
"2 	c #369633",
"3 	c #256334",
"4 	c #1F3B24",
"5 	c #57B13B",
"6 	c #54B835",
"7 	c #1D3F23",
"8 	c #56B23B",
"9 	c #4BAD33",
"0 	c #3F9E35",
"a 	c #349333",
"b 	c #2D7A35",
"c 	c #246335",
"d 	c #1F472A",
"e 	c #1B2113",
"f 	c #56B23A",
"g 	c #53B735",
"h 	c #43A433",
"i 	c #379535",
"j 	c #389436",
"k 	c #368E35",
"l 	c #266236",
"m 	c #256037",
"n 	c #256038",
"o 	c #204C2F",
"p 	c #1D3220",
"q 	c #1F2915",
"r 	c #1F2916",
"s 	c #16080C",
"t 	c #13070A",
"u 	c #399535",
"v 	c #53B635",
"w 	c #55B834",
"x 	c #45A535",
"y 	c #338935",
"z 	c #256237",
"A 	c #256235",
"B 	c #1D462B",
"C 	c #1D3A29",
"D 	c #408A31",
"E 	c #50A534",
"F 	c #14070B",
"G 	c #307530",
"H 	c #2E752F",
"I 	c #379635",
"J 	c #3A812D",
"K 	c #3B812D",
"L 	c #439D34",
"M 	c #3C9C34",
"N 	c #328C33",
"O 	c #2B7435",
"P 	c #204E2E",
"Q 	c #204D30",
"R 	c #448937",
"S 	c #489535",
"T 	c #489534",
"U 	c #4EA835",
"V 	c #50AD35",
"W 	c #2F752F",
"X 	c #181D0D",
"Y 	c #23471D",
"Z 	c #369534",
"` 	c #1C4927",
" .	c #1C4126",
"..	c #338235",
"+.	c #349135",
"@.	c #359334",
"#.	c #2E8333",
"$.	c #236036",
"%.	c #255F37",
"&.	c #1C3C28",
"*.	c #1C3A29",
"=.	c #50A735",
"-.	c #53B834",
";.	c #53B835",
">.	c #53B734",
",.	c #4FB136",
"'.	c #3A9338",
").	c #14170D",
"!.	c #15070B",
"~.	c #417730",
"{.	c #56B835",
"].	c #50B134",
"^.	c #359634",
"/.	c #379534",
"(.	c #389535",
"_.	c #225928",
":.	c #1D3B29",
"<.	c #1D3C29",
"[.	c #276E2C",
"}.	c #2E8432",
"|.	c #245E34",
"1.	c #1D3B28",
"2.	c #1C3A28",
"3.	c #1C3B29",
"4.	c #1C3A2A",
"5.	c #50A734",
"6.	c #44A532",
"7.	c #379436",
"8.	c #12080A",
"9.	c #479030",
"0.	c #4FA035",
"a.	c #4FB132",
"b.	c #2E8034",
"c.	c #245E31",
"d.	c #1F462D",
"e.	c #1E3B29",
"f.	c #215429",
"g.	c #25612D",
"h.	c #204E2F",
"i.	c #1F4B2E",
"j.	c #1B3C26",
"k.	c #479536",
"l.	c #469536",
"m.	c #479635",
"n.	c #3E8531",
"o.	c #409830",
"p.	c #2F752D",
"q.	c #1A2310",
"r.	c #468D2F",
"s.	c #4EB035",
"t.	c #296E37",
"u.	c #214D2E",
"v.	c #1E3C28",
"w.	c #1C4624",
"x.	c #2D672A",
"y.	c #2E7C30",
"z.	c #379437",
"A.	c #223A1E",
"B.	c #4D9D33",
"C.	c #4FB135",
"D.	c #204D2E",
"E.	c #2D5731",
"F.	c #54B933",
"G.	c #3D9D36",
"H.	c #27642D",
"I.	c #2F7B31",
"J.	c #236233",
"K.	c #328F34",
"L.	c #20461A",
"M.	c #4C9D32",
"N.	c #4EB132",
"O.	c #42A134",
"P.	c #235B32",
"Q.	c #1E472D",
"R.	c #2B562C",
"S.	c #499A36",
"T.	c #44A432",
"U.	c #399935",
"V.	c #328433",
"W.	c #2B712F",
"X.	c #296B2D",
"Y.	c #2C752D",
"Z.	c #246234",
"`.	c #2A7735",
" +	c #1C3819",
".+	c #4D9E33",
"++	c #49AA34",
"@+	c #369435",
"#+	c #1E4E2E",
"$+	c #1C3C29",
"%+	c #1E3A29",
"&+	c #2E662A",
"*+	c #369732",
"=+	c #2A6C2D",
"-+	c #1E3F28",
";+	c #1D3D29",
">+	c #235B28",
",+	c #369436",
"'+	c #256234",
")+	c #246236",
"!+	c #192C1B",
"~+	c #4DA633",
"{+	c #4BAB36",
"]+	c #369533",
"^+	c #369536",
"/+	c #1F4E2E",
"(+	c #2E652A",
"_+	c #2B712E",
":+	c #29662E",
"<+	c #328E32",
"[+	c #4CA730",
"}+	c #4BAC35",
"|+	c #339134",
"1+	c #2B7B35",
"2+	c #2C7B35",
"3+	c #439337",
"4+	c #489C38",
"5+	c #479735",
"6+	c #479535",
"7+	c #428D34",
"8+	c #3A8933",
"9+	c #44A433",
"0+	c #338833",
"a+	c #307A33",
"b+	c #338433",
"c+	c #328E31",
"d+	c #256136",
"e+	c #1A2C1B",
"f+	c #49AA37",
"g+	c #328A34",
"h+	c #246336",
"i+	c #266834",
"j+	c #4DAB31",
"k+	c #4BAE35",
"l+	c #3D9D34",
"m+	c #53B636",
"n+	c #53B637",
"o+	c #246635",
"p+	c #256035",
"q+	c #266035",
"r+	c #1A301B",
"s+	c #4FAA31",
"t+	c #45A632",
"u+	c #338C37",
"v+	c #55B437",
"w+	c #4AAC32",
"x+	c #369532",
"y+	c #359533",
"z+	c #1A3D27",
"A+	c #1B3C28",
"B+	c #328934",
"C+	c #224D1C",
"D+	c #4DAA30",
"E+	c #4BAD34",
"F+	c #3C9C33",
"G+	c #246235",
"H+	c #204D2C",
"I+	c #479C37",
"J+	c #54B636",
"K+	c #45A333",
"L+	c #3F9E34",
"M+	c #286C2D",
"N+	c #2E8036",
"O+	c #2A7A35",
"P+	c #297A34",
"Q+	c #328C34",
"R+	c #308933",
"S+	c #2D7F36",
"T+	c #276C2E",
"U+	c #489336",
"V+	c #489434",
"W+	c #399534",
"X+	c #327D2F",
"Y+	c #4DA832",
"Z+	c #55B438",
"`+	c #45A038",
" @	c #338C38",
".@	c #265F37",
"+@	c #1C3A27",
"@@	c #55B934",
"#@	c #54B735",
"$@	c #44A533",
"%@	c #3A9339",
"&@	c #1A4025",
"*@	c #399139",
"=@	c #2B6D39",
"-@	c #318237",
";@	c #2F7E36",
">@	c #2A6C38",
",@	c #399038",
"'@	c #194225",
")@	c #55B738",
"!@	c #276025",
"~@	c #338930",
"{@	c #22572A",
"]@	c #1A3C28",
"^@	c #2C7730",
"/@	c #235C32",
"(@	c #1B3B2A",
"_@	c #56B934",
":@	c #44A435",
"<@	c #369632",
"[@	c #339133",
"}@	c #246334",
"|@	c #1A3D26",
"1@	c #225C33",
"2@	c #235C33",
"3@	c #1C4025",
"4@	c #3B9A34",
"5@	c #297334",
"6@	c #246136",
"7@	c #1C4123",
"8@	c #26632A",
"9@	c #2E7532",
"0@	c #2E7832",
"a@	c #265A2E",
"b@	c #24592C",
"c@	c #2E7F2E",
"d@	c #328935",
"e@	c #1F4A2D",
"f@	c #1F422A",
"g@	c #459432",
"h@	c #48A934",
"i@	c #3C9B34",
"j@	c #338E34",
"k@	c #2C7A34",
"l@	c #2B7835",
"m@	c #2F7933",
"n@	c #265833",
"o@	c #235B34",
"p@	c #225632",
"q@	c #245E35",
"r@	c #1E4B2D",
"s@	c #1C4027",
"t@	c #389833",
"u@	c #2A7336",
"v@	c #1C4223",
"w@	c #1B3D23",
"x@	c #338B31",
"y@	c #379634",
"z@	c #296C2D",
"A@	c #1C3F27",
"B@	c #286B2C",
"C@	c #348438",
"D@	c #1E3C29",
"E@	c #214B27",
"F@	c #3E9E36",
"G@	c #338738",
"H@	c #359635",
"I@	c #295431",
"J@	c #215531",
"K@	c #266136",
"L@	c #245433",
"M@	c #214B30",
"N@	c #265A34",
"O@	c #1C4425",
"P@	c #359632",
"Q@	c #379538",
"R@	c #379537",
"S@	c #2A7337",
"T@	c #14070A",
"U@	c #58B73A",
"V@	c #40A034",
"W@	c #1C3B28",
"X@	c #336231",
"Y@	c #399833",
"Z@	c #2F8333",
"`@	c #246237",
" #	c #369635",
".#	c #295432",
"+#	c #285531",
"@#	c #286B37",
"##	c #246137",
"$#	c #15070A",
"%#	c #56B639",
"&#	c #48A933",
"*#	c #3A9A34",
"=#	c #317F36",
"-#	c #204B2E",
";#	c #204E2A",
">#	c #3B8635",
",#	c #45A533",
"'#	c #379734",
")#	c #2F7137",
"!#	c #49AB36",
"~#	c #4A9736",
"{#	c #499233",
"]#	c #499234",
"^#	c #33692D",
"/#	c #275F2E",
"(#	c #307832",
"_#	c #337E35",
":#	c #2B7B34",
"<#	c #2A7B34",
"[#	c #276637",
"}#	c #225731",
"|#	c #1A341F",
"1#	c #5BB340",
"2#	c #3E9D32",
"3#	c #308438",
"4#	c #205631",
"5#	c #215B29",
"6#	c #3D9D35",
"7#	c #53B736",
"8#	c #54B736",
"9#	c #379536",
"0#	c #308235",
"a#	c #337935",
"b#	c #3A812B",
"c#	c #2B732F",
"d#	c #266036",
"e#	c #1F4D2F",
"f#	c #18281B",
"g#	c #40A033",
"h#	c #256137",
"i#	c #277234",
"j#	c #308136",
"k#	c #3E9C36",
"l#	c #1F402A",
"m#	c #1D3A27",
"n#	c #19281B",
"o#	c #439E32",
"p#	c #348933",
"q#	c #2C7B34",
"r#	c #2A7236",
"s#	c #2A7038",
"t#	c #318835",
"u#	c #2D8233",
"v#	c #297136",
"w#	c #317536",
"x#	c #4AA238",
"y#	c #45A534",
"z#	c #348E34",
"A#	c #2A6B2E",
"B#	c #214E2E",
"C#	c #204E2D",
"D#	c #1E3D2A",
"E#	c #1B2F23",
"F#	c #2F7238",
"G#	c #296039",
"H#	c #276037",
"I#	c #276136",
"J#	c #307839",
"K#	c #379336",
"L#	c #379337",
"M#	c #286F35",
"N#	c #368234",
"O#	c #54B737",
"P#	c #54B738",
"Q#	c #358637",
"R#	c #1F3A29",
"S#	c #17080D",
"T#	c #1B2B1F",
"U#	c #245B33",
"V#	c #368235",
"W#	c #50B233",
"X#	c #359633",
"Y#	c #1B3425",
"Z#	c #16070C",
"`#	c #14060B",
" $	c #14060A",
".$	c #18241A",
"+$	c #19251B",
"@$	c #18251B",
"#$	c #1C3921",
"$$	c #1C3F22",
"%$	c #1B3F22",
"&$	c #275524",
"*$	c #367624",
"=$	c #276122",
"-$	c #266021",
";$	c #266022",
">$	c #1E431E",
",$	c #17251A",
"                                                                                                    ",
"                                                                                                    ",
"                                                                                                    ",
"                                                                                                    ",
"                                                                                                    ",
"                                                                                                    ",
"                                            . . + @ # @ @                                           ",
"                                            $ $ % & & & &                                           ",
"                                          * = - ; > > > , ' )                                       ",
"                                      @ ! ~ = { > > > > > ] ^ /                                     ",
"                                      $ ( = _ : > > > > > ] < [                                     ",
"                                    } | = = 1 > > > > > 2 3 < < 4                                   ",
"                                # 5 6 = = = 1 > > > > > 2 ] < < < 7                                 ",
"                                # 8 = = = 9 0 > > > a b b c < < < d                                 ",
"                                e f = = g h > > i j k l < < < m n o p q r                           ",
"                            s t u v = w x 2 > > y < < < < z A B C C D ~ ~ E F                       ",
"                            G H I J K L M > > N O < < < z P Q R S T U = = V W                       ",
"                        X Y > > Z `  ...+.+.@.#.< < < $.%.&.*.=.-.;.>.>.>.,.> '.).                  ",
"                    !.~.{.].^.> > /.(._.:.<.[.}.< < |.1.2.3.4.5.| 6.> > > > > ^.7.8.                ",
"                    9.0.w a.> > > > b.c.d.e.f.g.h.h.i.j.k.l.m.n.o.M > > > > > > Z p.                ",
"                q.r.= = 6 s.> > > > t.< u.e.e.e.e.e.v.w.~ = = x.y., > > > > > > > z.A.              ",
"              B.| = = = C.2 > > > > t.< D.:.e.e.e.e.E.F.= w G.Z H.I././././.> > > J.K.L.            ",
"              M.= = = N.O.> > > > > t.< P.Q.e.e.e.R.S.F.= T.U.> V.W.X.X.X.Y.2 > > Z.`. +            ",
"              .+= = 6 ++> > > > @+@+t.< < #+$+e.%+&+F.= = *+> > > =+-+e.;+>+> ,+,+'+)+!+            ",
"            ~+= = = {+]+> > > ^+] ] )+< < /+:.e.%+(+= = = *+> > > > _+e.:+^.<+A A A < !+            ",
"            [+= = = }+> > |+1+2+< < 3+4+4+5+6+6+7+8+= = 9+2 > > > > 0+a+b+> c+d+< < )+e+            ",
"            [+= = g f+> , g+h+< < i+j+= = = = = k+l+m+n+2 > > > > > > > > > <+o+o+p+q+r+            ",
"          s+w = | t+> > u+Z.< < l v+w = = = = w+2 > x+x+2 > > > > > > > > > 2 y+@+z+A+B+C+          ",
"          D+= = E+F+> > u+G+d+H+I+J+= = = 9 K+L+> > > i M+7.N+O+P+Q+R+O+O+O+S+, T+U+V+W+X+          ",
"          Y+v+Z+`+7.> >  @G+.@+@@@= = = #@$@> > > > > %@&@*@=@< < -@;@< < < >@,@'@)@;.l+7.!@        ",
"          ~@{@]@A+^@> >  @/@(@2._@| = = :@<@> > > > [@}@/.|@1@< < < < < < < 2@3@~ = 4@2 5@6@7@      ",
"          8@9@0@a@b@c@2 d@e@f@g@w | h@$@i@> > > j@k@l@A k@m@n@P P.< < o@p@q@r@s@| $@t@Z u@< v@      ",
"          w@x@y@z@A@B@z.C@D@E@F.= #@F@> > > > , G@< < < A H@I@:.J@K@K@L@M@N@e.O@g P@Q@R@S@< v@      ",
"      T@U@~ @@V@> Z a+W@W@X@~ = | Y@> > > > > Z@`@< < < A  #.#e.1.A+A+:.3.W@+#Z > > @#A z ##v@      ",
"      $#%#| &#*#> > =#-#;#>#= w ,#'#> > > > > Z@< )#4+4+I+!#~#{#]#^#/#(#(#(#_#i :#<#[#< < }#|#      ",
"        1#w 2#]+> > 3#4#5#6#7#8#2 > > > > > 9#0#< a#= = = = 8#8#8#b#c#> > > > 9#< < d#d#d#e#f#      ",
"          D+w g#> > 3#h#i#2 ]+]+> > > > > > j#)+< a#= = = w k#]+]+Z Z > > > > 9#< < l#m#m#3.n#      ",
"            o#p#q#q#r#s#t#> > > > > > u#q#q#v#< w#x#= 6 ,#y#U.> > > > > > z#X.A#B#C#D#e.e.E#        ",
"              F#G#H#I#J#K#z.z.z.z.z.L#M#####< < N#| O#P#> > > > > 7.z.z.z.Q#:.R#R#R#R#R#R#          ",
"              S#@ T#2.1.1.1.1.1.1.1.1.U#< < < < V#W#X#<@2 2 2 2 2 X.&.1.1.1.Y#Z#@ `#`# $@           ",
"                    .$.$.$.$+$.$.$@$.$#$$$$$%$%$&$*$=$-$-$-$;$-$-$>$,$.$.$.$                        ",
"                                                                                                    ",
"                                                                                                    ",
"                                                                                                    ",
"                                                                                                    ",
"                                                                                                    ",
"                                                                                                    ",
"                                                                                                    ",
"                                                                                                    ",
"                                                                                                    "};
